<svg width="28" height="27" viewBox="0 0 28 27" fill="none" xmlns="http://www.w3.org/2000/svg">
<path fill-rule="evenodd" clip-rule="evenodd" d="M17.3187 3C17.3188 3.69619 17.0343 4.36387 16.5279 4.85615C16.0216 5.34844 15.3348 5.625 14.6188 5.625C13.9027 5.625 13.2159 5.34844 12.7096 4.85615C12.2032 4.36387 11.9188 3.69619 11.9188 3C11.9188 2.30381 12.2032 1.63613 12.7096 1.14384C13.2159 0.651562 13.9027 0.375 14.6188 0.375C15.3348 0.375 16.0216 0.651562 16.5279 1.14384C17.0343 1.63613 17.3188 2.30381 17.3187 3ZM24.5 16.4167H13.814L17.1785 19.644C17.3152 19.7751 17.4246 19.9306 17.501 20.1019L19.5012 24.5862C19.5796 24.762 19.6217 24.951 19.625 25.1425C19.6282 25.334 19.5927 25.5242 19.5203 25.7024C19.4479 25.8805 19.3402 26.0431 19.2032 26.1807C19.0663 26.3184 18.9027 26.4285 18.722 26.5047C18.5413 26.5809 18.3469 26.6218 18.1499 26.625C17.9529 26.6281 17.7572 26.5936 17.574 26.5232C17.3908 26.4529 17.2236 26.3481 17.082 26.2149C16.9404 26.0818 16.8272 25.9228 16.7488 25.7471L14.864 21.5208L9.54275 16.4167H3.5C3.10218 16.4167 2.72064 16.5703 2.43934 16.8438C2.15804 17.1173 2 17.4882 2 17.875V26.625H0.5V17.875C0.5 17.1015 0.81607 16.3596 1.37868 15.8126C1.94129 15.2656 2.70435 14.9583 3.5 14.9583H7.973C7.41125 13.1194 7.6175 11.2192 8.06075 9.74917C8.2985 8.96094 8.6195 8.24271 8.97875 7.66958C9.15418 7.38413 9.3598 7.11726 9.59225 6.87333C9.8045 6.65531 10.1248 6.38115 10.5522 6.22656C11.4838 5.89042 12.4602 5.91594 13.331 6.35344C14.1657 6.77344 14.7538 7.49458 15.1348 8.2901C15.2923 8.61823 15.437 8.92448 15.5728 9.21104V9.21177C15.9028 9.90448 16.178 10.4864 16.4427 10.9982C16.8148 11.7172 17.1087 12.1824 17.3937 12.5047C17.654 12.8 17.9082 12.9765 18.2323 13.0997C18.5847 13.2339 19.0918 13.3308 19.895 13.3542C20.1008 13.3602 20.3032 13.4073 20.4894 13.4926C20.6757 13.5779 20.8419 13.6996 20.9777 13.8501C21.1135 14.0006 21.2159 14.1767 21.2787 14.3673C21.3415 14.558 21.3632 14.7592 21.3425 14.9583H24.5C25.2956 14.9583 26.0587 15.2656 26.6213 15.8126C27.1839 16.3596 27.5 17.1015 27.5 17.875V26.625H26V17.875C26 17.4882 25.842 17.1173 25.5607 16.8438C25.2794 16.5703 24.8978 16.4167 24.5 16.4167ZM14.2723 13.228L13.886 14.9583H15.68C15.479 14.7871 15.291 14.6018 15.1175 14.4042C14.8002 14.0374 14.5173 13.6438 14.2723 13.228ZM8.3645 17.7095L10.8395 20.018L9.90425 23.0878C9.86675 23.2125 9.81125 23.3321 9.74075 23.4422L8.14925 25.9359C7.9394 26.2646 7.60385 26.4988 7.21642 26.5869C6.829 26.675 6.42143 26.6099 6.08337 26.4059C5.74532 26.2019 5.50448 25.8756 5.41383 25.499C5.32318 25.1223 5.39015 24.7261 5.6 24.3974L7.085 22.0714L8.0915 18.7697L8.3645 17.7095Z" fill="#007139"/>
</svg>
