<svg width="203" height="182" viewBox="0 0 203 182" fill="none" xmlns="http://www.w3.org/2000/svg">
<g clip-path="url(#clip0_1122_1574)">
<path d="M187.754 132.47L201.834 127.375C203.384 119.422 203.036 111.197 200.821 103.414C195.48 116.734 178.821 120.459 169.572 131.24C166.712 134.625 164.624 138.634 163.463 142.969C162.302 147.304 162.098 151.854 162.865 156.282L160.169 166.878C167.134 166.05 173.843 163.668 179.834 159.896C185.825 156.124 190.955 151.052 194.871 145.028C197.036 141.626 198.778 137.955 200.058 134.102C193.98 133.656 187.754 132.47 187.754 132.47Z" fill="#F2F2F2"/>
<path d="M89.4439 137.895H160.531C162.62 137.895 164.318 138.33 164.318 138.868V167.671H85.647V138.868C85.647 138.33 87.3454 137.895 89.4439 137.895Z" fill="#F2F2F2"/>
<path d="M138.676 164.56L139.221 173.583L142.926 173.112L149.612 180.905C149.942 181.29 150.382 181.555 150.868 181.663C151.354 181.77 151.861 181.714 152.314 181.502C152.767 181.29 153.143 180.933 153.386 180.484C153.63 180.036 153.729 179.518 153.668 179.007L152.405 168.344L148.523 166.971L152.102 165.788L151.626 161.768L138.676 164.56Z" fill="#2F2E41"/>
<path d="M142.599 165.918L143.264 171.524L122.706 176.846L121.725 168.572L142.599 165.918Z" fill="#9E616A"/>
<path d="M69.0377 177.714L75.6901 169.89L74.7866 166.138L75.7282 165.955H75.734L81.6121 164.819L83.3661 164.479L87.6191 177.453L83.8237 178.434L82.2545 174.897L81.5974 178.146L81.4126 179.054L71.349 181.652C70.8669 181.776 70.359 181.738 69.8994 181.542C69.4399 181.347 69.0528 181.004 68.7946 180.564C68.5365 180.124 68.4208 179.61 68.4646 179.098C68.5083 178.585 68.7091 178.1 69.0377 177.714Z" fill="#2F2E41"/>
<path d="M171.59 100.658L181.422 89.0412C178.99 81.3284 174.778 74.3469 169.151 68.7031C170.834 83.0211 158.105 94.7598 155.18 108.862C154.3 113.267 154.388 117.821 155.438 122.186C156.488 126.552 158.473 130.616 161.246 134.079L163.936 144.676C169.605 140.403 174.312 134.908 177.733 128.569C181.154 122.23 183.208 115.198 183.753 107.957C184.02 103.892 183.792 99.8085 183.074 95.8026C177.572 98.514 171.59 100.658 171.59 100.658Z" fill="#F2F2F2"/>
<path d="M126.935 166.549L125.016 166.236C127.076 168.457 129.052 169.925 130.93 170.381L130.02 167.051L126.935 166.549Z" fill="#2F2E41"/>
<path d="M78.6136 175.364C79.3689 176.534 80.3942 177.489 81.5966 178.144C82.6152 178.721 83.6937 179.177 84.8113 179.502C99.6765 184.002 132.208 175.06 132.208 175.06L130.929 170.378L130.02 167.048L126.934 166.546L125.016 166.233L102.073 162.505L108.394 158.014L115.75 152.788L128.207 143.937L143.137 136.982C160.442 122.701 145.953 106.689 145.953 106.689L136.267 99.5788L133.123 97.2695L113.805 107.509L108.197 121.261L106.473 125.488L95.1771 138.793L80.9425 155.559L80.8311 155.69C80.4194 156.014 80.0322 156.369 79.6725 156.753C79.5405 156.887 79.4026 157.036 79.2618 157.197C77.9824 158.631 77.001 160.322 76.3786 162.165C75.9742 163.38 75.7545 164.653 75.7274 165.939C75.726 165.941 75.7252 165.944 75.7252 165.946C75.7252 165.949 75.726 165.952 75.7274 165.954C75.6629 168.631 76.4049 171.788 78.6136 175.364Z" fill="#2F2E41"/>
<path d="M56.3673 43.8629C56.2622 44.483 56.2897 45.1194 56.4477 45.7273C56.6058 46.3352 56.8906 46.8998 57.2821 47.3814C57.6736 47.863 58.1622 48.2497 58.7136 48.5145C59.265 48.7792 59.8658 48.9155 60.4735 48.9138L65.3557 63.3577L70.0078 57.0316L64.6584 44.2852C64.5879 43.2278 64.1454 42.2339 63.4147 41.4918C62.684 40.7498 61.7159 40.3112 60.6939 40.2591C59.6719 40.2071 58.667 40.5452 57.8696 41.2094C57.0721 41.8736 56.5376 42.8177 56.3673 43.8629Z" fill="#9E616A"/>
<path d="M77.8531 84.113L86.7025 82.1308C102.664 76.8952 108.137 70.4339 109.921 65.9343C111.825 61.1334 110.09 57.6195 110.015 57.4727L109.97 57.4093L104.245 51.6381C103.518 50.9051 102.649 50.3406 101.695 49.9819C100.741 49.6233 99.7248 49.4788 98.7131 49.558C97.7013 49.6372 96.7173 49.9383 95.8264 50.4413C94.9355 50.9443 94.1579 51.6377 93.5453 52.4756L81.9203 68.3764L76.5372 60.8216L73.9262 58.6574L72.5178 54.5676L67.1162 48.4805L60.8623 51.4782L63.2168 66.1975L66.3674 68.1931L66.5159 70.3601L66.5677 70.4234L77.8531 84.113Z" fill="#E6E6E6"/>
<path d="M152.575 113.447C153.345 113.206 153.737 112.913 153.809 112.524C153.914 111.954 153.295 111.446 152.578 110.856C152.078 110.446 150.759 109.732 151.241 109.512C158.55 106.178 140.781 58.8517 135.625 53.4739C134.578 52.3812 134.703 50.1629 133.306 48.1893C129.493 42.7995 126.146 41.8229 119.481 39.8779C118.94 39.72 118.376 39.5546 117.79 39.3817C117.031 39.1575 117.831 41.3901 117.435 39.8933C116.996 38.2297 116.541 36.5092 115.45 35.6865L115.379 35.6328L115.291 35.6387C113.271 35.7771 106.676 36.9238 103.294 39.3977L103.247 39.4323L103.22 39.4844C102.597 40.6892 103.038 42.5072 103.464 44.2651C103.814 45.7084 102.972 43.425 102.636 44.1668C100.073 49.8369 95.6654 51.1207 95.6207 51.1336L95.4016 51.1949L95.4453 51.4254C94.2931 57.614 102.196 76.7875 103.904 89.6985C105.64 102.815 95.7453 117.589 110.286 115.105C110.253 115.219 104.919 126.561 105.006 126.651C106.329 128.023 149.671 114.355 152.575 113.447Z" fill="#E6E6E6"/>
<path d="M70.8993 156.548C72.7149 160.753 74.0231 163.445 74.0231 163.445L74.6714 163.093L76.3784 162.166L80.4438 159.957L81.1419 159.577L80.9424 155.561L80.0566 137.798L79.6811 130.311L95.1769 138.794L113.512 148.833C114.263 150.189 115.009 151.507 115.75 152.789L128.207 143.938L115.565 124.83L108.197 121.262L109.787 120.943C109.38 120.335 108.921 119.766 108.414 119.245L107.857 118.92C107.857 118.92 72.7971 98.9145 62.71 109.172C61.84 110.09 61.1874 111.204 60.8035 112.427C57.3453 122.715 65.9834 145.172 70.8993 156.548Z" fill="#2F2E41"/>
<path d="M82.541 168.679L77.2502 170.044L69.6466 149.555L77.4552 147.539L82.541 168.679Z" fill="#9E616A"/>
<path d="M122.191 130.24C122.234 130.24 122.278 130.239 122.322 130.237C122.836 130.218 123.338 130.07 123.785 129.807C124.233 129.543 124.612 129.172 124.891 128.724C126.979 125.49 129.542 122.614 132.487 120.199C134.27 118.723 136.133 117.351 137.934 116.023C142.582 112.6 146.959 109.376 149.389 104.921C154.686 95.2061 148.448 81.6753 139.535 75.6071C129.539 68.8013 116.391 67.7338 103.671 67.5939C102.349 67.5794 101.026 67.5722 99.7027 67.5723C76.7845 67.5814 53.9144 69.7476 31.3746 74.0443C23.8796 75.4768 16.0343 77.2316 9.72977 81.4901C3.46269 85.7235 -0.346542 92.39 0.0250702 98.4745C0.567642 107.357 9.65707 113.994 17.9338 115.729C25.8228 117.381 34.0183 116.265 42.6946 115.082C44.6101 114.821 46.5905 114.551 48.549 114.316C69.8336 111.768 109.818 119.623 111.51 119.959L113.188 120.292L119.7 128.972C119.993 129.368 120.37 129.688 120.802 129.908C121.234 130.128 121.709 130.241 122.191 130.24Z" fill="#007139"/>
<path d="M106.885 111.801H117.369C117.888 111.801 118.385 111.587 118.752 111.207C119.118 110.826 119.324 110.311 119.324 109.774C119.324 109.236 119.118 108.721 118.752 108.341C118.385 107.961 117.888 107.747 117.369 107.746H106.885C106.367 107.747 105.869 107.961 105.503 108.341C105.136 108.721 104.93 109.236 104.93 109.774C104.93 110.311 105.136 110.826 105.503 111.207C105.869 111.587 106.367 111.801 106.885 111.801Z" fill="white"/>
<path d="M27.4062 86.9089H117.369C117.888 86.9082 118.385 86.6943 118.752 86.3141C119.118 85.9339 119.324 85.4185 119.324 84.8812C119.324 84.3438 119.118 83.8285 118.752 83.4483C118.385 83.0681 117.888 82.8542 117.369 82.8535H27.4062C26.8875 82.8542 26.3903 83.0681 26.0237 83.4483C25.6572 83.8285 25.4513 84.3438 25.4513 84.8812C25.4513 85.4185 25.6572 85.9339 26.0237 86.3141C26.3903 86.6943 26.8875 86.9082 27.4062 86.9089Z" fill="white"/>
<path d="M56.2028 44.5959C58.8852 44.5959 61.5075 43.7718 63.7379 42.228C65.9683 40.6842 67.7066 38.4899 68.7332 35.9227C69.7597 33.3554 70.0283 30.5304 69.505 27.805C68.9817 25.0796 67.69 22.5762 65.7932 20.6112C63.8964 18.6463 61.4797 17.3082 58.8488 16.7661C56.2178 16.2239 53.4908 16.5022 51.0125 17.5656C48.5342 18.6289 46.416 20.4297 44.9257 22.7402C43.4353 25.0507 42.6399 27.7671 42.6399 30.5459C42.6439 34.2709 44.0742 37.8421 46.6168 40.476C49.1595 43.11 52.6069 44.5916 56.2028 44.5959Z" fill="#3F3D56"/>
<path d="M56.2023 44.4269C48.802 44.4269 42.803 38.2124 42.803 30.5464C42.803 22.8805 48.802 16.666 56.2023 16.666C63.6025 16.666 69.6016 22.8805 69.6016 30.5464C69.6016 38.2124 63.6025 44.4269 56.2023 44.4269Z" fill="white"/>
<path d="M57.2058 36.0956C57.2344 36.0956 57.2629 36.0947 57.2915 36.0932C57.5439 36.0806 57.7906 36.0116 58.0148 35.8909C58.239 35.7702 58.4354 35.6008 58.5904 35.3941L60.8297 32.4119C60.9711 32.2237 61.0753 32.0084 61.1364 31.7785C61.1975 31.5485 61.2142 31.3083 61.1857 31.0716C61.1572 30.8349 61.0839 30.6064 60.9701 30.3991C60.8563 30.1917 60.7042 30.0096 60.5224 29.8632L60.4418 29.7983C60.2601 29.6517 60.0523 29.5436 59.8302 29.4803C59.6081 29.417 59.3762 29.3996 59.1477 29.4292C58.9191 29.4588 58.6985 29.5347 58.4983 29.6527C58.2981 29.7707 58.1223 29.9284 57.981 30.1168C57.8679 30.2672 57.7248 30.3906 57.5614 30.4784C57.398 30.5663 57.2183 30.6166 57.0344 30.6259C56.8506 30.6351 56.667 30.6032 56.4961 30.5322C56.3253 30.4612 56.1713 30.3528 56.0446 30.2145L51.498 25.2422C51.178 24.893 50.7373 24.6895 50.2726 24.6765C49.8079 24.6634 49.3572 24.8417 49.0193 25.1724L48.9448 25.246C48.7776 25.41 48.6433 25.6065 48.5494 25.8243C48.4556 26.0422 48.4041 26.277 48.3979 26.5154C48.3917 26.7538 48.4309 26.9912 48.5132 27.2139C48.5956 27.4366 48.7195 27.6404 48.8779 27.8135L55.9336 35.5284C56.0973 35.7076 56.2945 35.8503 56.5132 35.9478C56.732 36.0454 56.9676 36.0957 57.2058 36.0956Z" fill="#007139"/>
<path d="M125.112 102.467C125.712 102.364 126.283 102.126 126.784 101.77C127.285 101.414 127.705 100.949 128.014 100.407C128.323 99.8646 128.513 99.2589 128.572 98.6322C128.63 98.0056 128.555 97.3733 128.352 96.7798L139.891 87.2225L132.587 84.7715L122.75 94.223C121.81 94.6423 121.052 95.4041 120.618 96.3642C120.184 97.3242 120.105 98.4157 120.397 99.4318C120.688 100.448 121.329 101.318 122.198 101.878C123.067 102.437 124.104 102.647 125.112 102.467Z" fill="#9E616A"/>
<path d="M154.654 68.1317L149.917 60.1391C139.86 46.2729 132.162 43.0643 127.472 42.811C122.468 42.5407 119.843 45.4007 119.734 45.5227L119.691 45.588L116.332 53.0954C115.905 54.049 115.679 55.0857 115.668 56.1367C115.657 57.1878 115.863 58.2292 116.27 59.1918C116.677 60.1545 117.277 61.0165 118.031 61.7206C118.784 62.4247 119.673 62.955 120.639 63.2761L138.974 69.3702L133.876 77.1347L132.77 80.4037L129.512 83.1353L125.757 90.4316L130.559 95.551L143.186 88.3728L143.96 84.6323L145.884 83.7692L145.925 83.6976L154.654 68.1317Z" fill="#E6E6E6"/>
<path d="M89.4211 36.4694L89.4092 36.4705C88.7755 36.5272 88.146 36.3208 87.6592 35.8967C87.1724 35.4726 86.8681 34.8656 86.8134 34.2091L85.6534 20.3965C85.4432 17.922 85.7155 15.4291 86.454 13.0658C87.9015 8.45343 91.0114 4.59761 95.1356 2.30192C97.2651 1.11972 99.6036 0.396408 102.01 0.175572C111.856 -0.727887 115.438 1.41966 121.416 17.0068C127.395 32.594 122.578 30.8405 122.578 30.8405C122.606 31.1734 122.57 31.5088 122.47 31.8266C122.275 32.4468 121.856 32.9649 121.301 33.2726C121.016 33.4301 120.703 33.5267 120.381 33.5566C108.73 36.5396 96.9715 39.6831 89.4191 36.4696L89.4211 36.4694Z" fill="#2F2E41"/>
<path d="M111.22 13.3186C112.666 15.5667 113.436 18.2082 113.434 20.9095C113.431 23.6108 112.656 26.2508 111.206 28.4959C109.756 30.7411 107.696 32.4908 105.287 33.5241C102.877 34.5573 100.226 34.8277 97.6687 34.3012C95.9756 33.9583 94.365 33.2708 92.9302 32.2785C91.4954 31.2863 90.2649 30.0089 89.3101 28.5205C87.8673 26.2732 87.0991 23.6337 87.1025 20.9348C87.1058 18.2359 87.8804 15.5984 89.3287 13.3549C90.7769 11.1114 92.834 9.3623 95.2406 8.32819C97.6471 7.29408 100.295 7.02122 102.851 7.54403C104.546 7.88493 106.158 8.57096 107.595 9.56232C109.031 10.5537 110.263 11.8306 111.22 13.3191L111.22 13.3186Z" fill="#9E616A"/>
<path d="M27.4084 99.3542H117.371C117.629 99.3546 117.883 99.3026 118.121 99.201C118.359 99.0995 118.575 98.9504 118.757 98.7623C118.939 98.5741 119.083 98.3507 119.182 98.1047C119.281 97.8587 119.332 97.595 119.332 97.3286C119.332 97.0622 119.282 96.7984 119.184 96.5522C119.086 96.306 118.941 96.0823 118.76 95.8938C118.578 95.7053 118.362 95.5557 118.125 95.4536C117.887 95.3515 117.633 95.2989 117.375 95.2988H27.4084C26.8897 95.2995 26.3924 95.5134 26.0259 95.8936C25.6593 96.2738 25.4534 96.7892 25.4534 97.3265C25.4534 97.8638 25.6593 98.3792 26.0259 98.7594C26.3924 99.1396 26.8897 99.3535 27.4084 99.3542Z" fill="white"/>
<path d="M81.5176 21.9014C81.3515 19.9444 81.5669 17.9728 82.1509 16.1037C82.3129 11.5228 83.6228 7.38165 89.0162 7.59291C90.6898 6.66466 92.5265 6.0946 94.4171 5.91666L97.0847 5.66228C97.1146 5.6594 97.1446 5.65662 97.1746 5.65394C100.907 5.31995 104.615 6.53556 107.482 9.03334C110.349 11.5311 112.141 15.1065 112.463 18.9728L112.486 19.2495L106.843 19.7819L104.45 14.3842L104.534 20.0009L101.619 20.277L100.412 17.5538L100.454 20.3857C96.1031 24.3019 89.5433 24.4637 81.5433 22.1784L81.5176 21.9014Z" fill="#2F2E41"/>
<path d="M99.4761 35.1231C99.4252 35.5776 99.4984 36.0377 99.6875 36.4513C99.7827 36.663 99.9061 36.8599 100.054 37.0362C100.181 37.1864 100.324 37.3205 100.481 37.4358C100.946 37.776 101.513 37.9334 102.08 37.8797C102.115 37.8762 102.151 37.872 102.186 37.8671C102.221 37.8622 102.256 37.8564 102.291 37.8498C102.327 37.8435 102.362 37.8362 102.397 37.8279C102.432 37.8196 102.467 37.8106 102.502 37.8009L104.474 37.243L106.721 30.8861L107.191 36.481L116.158 33.9609L114.164 10.2188L98.8979 11.6712L99.3136 12.0914C100.695 13.5027 101.673 15.2813 102.142 17.2317C102.606 19.2079 102.74 21.2521 102.538 23.2753C102.349 25.3212 101.97 27.3435 101.407 29.3144C100.917 31.0597 100.33 32.7742 99.6497 34.4496C99.5617 34.6646 99.5033 34.8913 99.4761 35.1231Z" fill="#2F2E41"/>
</g>
<defs>
<clipPath id="clip0_1122_1574">
<rect width="202.785" height="181.724" fill="white" transform="matrix(-1 0 0 1 202.785 0)"/>
</clipPath>
</defs>
</svg>
