<svg width="33" height="22" viewBox="0 0 33 22" fill="none" xmlns="http://www.w3.org/2000/svg">
<path d="M30.9712 8.13175L27.9783 5.2635V19.25C27.9783 19.9793 27.6759 20.6788 27.1378 21.1945C26.5996 21.7103 25.8698 22 25.1087 22H15.0652V19.25H25.1087V5.2635L22.1157 8.13175L20.087 6.1875L26.5435 0L33 6.1875L30.9712 8.13175ZM7.8913 16.7365V2.75H17.9348V0H7.8913C7.13025 0 6.40036 0.289731 5.86222 0.805456C5.32407 1.32118 5.02174 2.02065 5.02174 2.75V16.7365L2.02878 13.8683L0 15.8125L6.45652 22L12.913 15.8125L10.8843 13.8683L7.8913 16.7365Z" fill="#007139"/>
</svg>
