<svg width="32" height="30" viewBox="0 0 32 30" fill="none" xmlns="http://www.w3.org/2000/svg">
<path d="M24.381 18.5714H6.09524L0 24.2857V1.42857C0 1.04969 0.160544 0.686328 0.446313 0.418419C0.732083 0.15051 1.11967 0 1.52381 0H24.381C24.7851 0 25.1727 0.15051 25.4585 0.418419C25.7442 0.686328 25.9048 1.04969 25.9048 1.42857V17.1429C25.9048 17.5217 25.7442 17.8851 25.4585 18.153C25.1727 18.4209 24.7851 18.5714 24.381 18.5714ZM32 10V30L25.9048 24.2857H9.14286C8.73872 24.2857 8.35113 24.1352 8.06536 23.8673C7.77959 23.5994 7.61905 23.236 7.61905 22.8571V21.4286H28.9524V8.57143H30.4762C30.8803 8.57143 31.2679 8.72194 31.5537 8.98985C31.8395 9.25776 32 9.62112 32 10ZM9.43238 2.85714C8.10667 2.85714 7.04 3.14286 6.21714 3.7C5.42476 4.28571 5.02857 5.1 5.04381 6.22857L5.05905 6.27143H8C8.01524 5.84286 8.15238 5.51429 8.42667 5.28571C8.70884 5.06635 9.0659 4.94969 9.43238 4.95714C9.90476 4.95714 10.301 5.1 10.5752 5.35714C10.8495 5.62857 10.9714 6 10.9714 6.42857C10.9714 6.88571 10.8648 7.27143 10.621 7.6C10.4076 7.92857 10.0876 8.21429 9.69143 8.44286C8.91429 8.92857 8.38095 9.35714 8.09143 9.74286C7.78667 10.1143 7.61905 10.7143 7.61905 11.4286H10.6667C10.6667 10.9857 10.7276 10.6286 10.8648 10.3714C11.0019 10.1143 11.261 9.85714 11.6419 9.62857C12.3276 9.28571 12.8914 8.87143 13.3333 8.3C13.7752 7.72857 14.0038 7.14286 14.0038 6.42857C14.0038 5.34286 13.5924 4.47143 12.7695 3.82857C11.9619 3.18571 10.8495 2.85714 9.43238 2.85714ZM7.61905 12.8571V15.7143H10.6667V12.8571H7.61905ZM16.7619 15.7143H19.8095V12.8571H16.7619V15.7143ZM16.7619 2.85714V11.4286H19.8095V2.85714H16.7619Z" fill="#007139"/>
</svg>
