<svg width="43" height="43" viewBox="0 0 43 43" fill="none" xmlns="http://www.w3.org/2000/svg">
<path d="M21.5 42.0625C10.1447 42.0625 0.9375 32.8553 0.9375 21.5C0.9375 10.1447 10.1447 0.9375 21.5 0.9375C32.8553 0.9375 42.0625 10.1447 42.0625 21.5C42.0625 32.8553 32.8553 42.0625 21.5 42.0625ZM29.0916 13.6881L26.0623 13.7019L21.5 19.1408L16.9423 13.7064L13.9084 13.6927C13.7064 13.6927 13.5412 13.8533 13.5412 14.0599C13.5412 14.1471 13.5733 14.2297 13.6284 14.2985L19.5998 21.4128L13.6284 28.5225C13.573 28.5897 13.5422 28.674 13.5412 28.7611C13.5412 28.9631 13.7064 29.1283 13.9084 29.1283L16.9423 29.1146L21.5 23.6756L26.0577 29.11L29.087 29.1237C29.289 29.1237 29.4542 28.9631 29.4542 28.7565C29.4542 28.6693 29.4221 28.5867 29.367 28.5179L23.4048 21.4082L29.3716 14.2939C29.4267 14.2251 29.4588 14.1425 29.4588 14.0553C29.4588 13.8533 29.2936 13.6881 29.0916 13.6881Z" fill="#EC0808"/>
</svg>
