<svg width="252" height="252" viewBox="0 0 252 252" fill="none" xmlns="http://www.w3.org/2000/svg">
<path d="M136.857 5.83631C136.857 5.83631 93.402 -1.83457 60.9091 28.2643C28.4162 58.3632 21.3401 108.022 14.5411 148C7.74214 187.977 27.5796 223.927 61.8163 235.872C96.053 247.817 109.349 218.983 150.52 210.445C191.692 201.907 204.574 206.136 232.435 175.654C260.297 145.172 250.947 86.4007 212.235 48.51C173.523 10.6193 136.857 5.83631 136.857 5.83631Z" fill="#263238"/>
<path d="M127.37 161.154C163.077 161.154 192.023 132.208 192.023 96.5008C192.023 60.7938 163.077 31.8477 127.37 31.8477C91.663 31.8477 62.7168 60.7938 62.7168 96.5008C62.7168 132.208 91.663 161.154 127.37 161.154Z" fill="white"/>
<path d="M170.496 139.626C194.314 115.809 194.314 77.1924 170.496 53.3747C146.679 29.557 108.063 29.557 84.2449 53.3747C60.4272 77.1924 60.4272 115.809 84.2449 139.626C108.063 163.444 146.679 163.444 170.496 139.626Z" fill="#DBDBDB"/>
<path d="M72.3642 96.2641C70.3482 96.0021 70.1265 95.7853 69.8442 93.7441C69.5821 95.7601 69.3705 95.9819 67.3242 96.2641C69.3402 96.5262 69.562 96.7379 69.8442 98.7841C70.1265 96.7278 70.3381 96.5161 72.3642 96.2641Z" fill="#E5E5E5"/>
<path d="M219.038 142.436C221.343 142.436 223.211 140.567 223.211 138.262C223.211 135.958 221.343 134.089 219.038 134.089C216.734 134.089 214.865 135.958 214.865 138.262C214.865 140.567 216.734 142.436 219.038 142.436Z" fill="#E5E5E5"/>
<path d="M71.7844 42.0035C74.0892 42.0035 75.9576 40.1351 75.9576 37.8303C75.9576 35.5256 74.0892 33.6572 71.7844 33.6572C69.4797 33.6572 67.6113 35.5256 67.6113 37.8303C67.6113 40.1351 69.4797 42.0035 71.7844 42.0035Z" fill="#E5E5E5"/>
<path d="M188.517 160.171C190.357 160.171 191.848 158.68 191.848 156.84C191.848 155 190.357 153.508 188.517 153.508C186.677 153.508 185.186 155 185.186 156.84C185.186 158.68 186.677 160.171 188.517 160.171Z" fill="#E5E5E5"/>
<path d="M196.385 135.444C197.129 133.762 196.369 131.794 194.687 131.049C193.004 130.304 191.037 131.064 190.292 132.747C189.547 134.429 190.307 136.397 191.99 137.142C193.672 137.886 195.64 137.126 196.385 135.444Z" fill="#E5E5E5"/>
<path d="M55.4252 142.899C57.2651 142.899 58.7566 141.408 58.7566 139.568C58.7566 137.728 57.2651 136.236 55.4252 136.236C53.5853 136.236 52.0938 137.728 52.0938 139.568C52.0938 141.408 53.5853 142.899 55.4252 142.899Z" fill="#E5E5E5"/>
<path d="M88.7846 185.87C90.6245 185.87 92.116 184.379 92.116 182.539C92.116 180.699 90.6245 179.208 88.7846 179.208C86.9447 179.208 85.4531 180.699 85.4531 182.539C85.4531 184.379 86.9447 185.87 88.7846 185.87Z" fill="#E5E5E5"/>
<path d="M46.8288 93.1321C48.1298 91.831 48.1298 89.7217 46.8288 88.4207C45.5278 87.1197 43.4184 87.1197 42.1174 88.4207C40.8164 89.7217 40.8164 91.831 42.1174 93.1321C43.4184 94.4331 45.5278 94.4331 46.8288 93.1321Z" fill="#E5E5E5"/>
<path d="M21.0721 162.354C22.1076 162.354 22.947 161.514 22.947 160.479C22.947 159.443 22.1076 158.604 21.0721 158.604C20.0367 158.604 19.1973 159.443 19.1973 160.479C19.1973 161.514 20.0367 162.354 21.0721 162.354Z" fill="#E5E5E5"/>
<path d="M202.301 165.836C203.336 165.836 204.176 164.997 204.176 163.961C204.176 162.926 203.336 162.086 202.301 162.086C201.265 162.086 200.426 162.926 200.426 163.961C200.426 164.997 201.265 165.836 202.301 165.836Z" fill="#E5E5E5"/>
<path d="M180.512 50.8284C181.547 50.8284 182.386 49.989 182.386 48.9535C182.386 47.918 181.547 47.0786 180.512 47.0786C179.476 47.0786 178.637 47.918 178.637 48.9535C178.637 49.989 179.476 50.8284 180.512 50.8284Z" fill="#E5E5E5"/>
<path d="M216.242 90.5388C217.278 90.5388 218.117 89.6994 218.117 88.6639C218.117 87.6285 217.278 86.7891 216.242 86.7891C215.207 86.7891 214.367 87.6285 214.367 88.6639C214.367 89.6994 215.207 90.5388 216.242 90.5388Z" fill="#E5E5E5"/>
<path d="M82.3124 181.773C83.3478 181.773 84.1873 180.933 84.1873 179.898C84.1873 178.862 83.3478 178.023 82.3124 178.023C81.2769 178.023 80.4375 178.862 80.4375 179.898C80.4375 180.933 81.2769 181.773 82.3124 181.773Z" fill="#E5E5E5"/>
<path d="M165.816 220.248H86.1836V245.952H165.816V220.248Z" fill="#949494" stroke="#8C8C8C" stroke-linecap="round" stroke-linejoin="round"/>
<path d="M120.032 31.752H95.3359V245.952H120.032V31.752Z" fill="#A3A3A3" stroke="#8C8C8C" stroke-linecap="round" stroke-linejoin="round"/>
<path d="M113.985 31.752H101.385V245.952H113.985V31.752Z" fill="#4F4F4F" stroke="#8C8C8C" stroke-linecap="round" stroke-linejoin="round"/>
<path d="M120.032 31.752H95.3359V42.336H120.032V31.752Z" fill="#A3A3A3" stroke="#8C8C8C" stroke-linecap="round" stroke-linejoin="round"/>
<path d="M119.155 45.1836H116.398V48.263H119.155V45.1836Z" fill="#949494" stroke="#8C8C8C" stroke-linecap="round" stroke-linejoin="round"/>
<path d="M119.155 51.8613H116.398V54.9408H119.155V51.8613Z" fill="#949494" stroke="#8C8C8C" stroke-linecap="round" stroke-linejoin="round"/>
<path d="M119.155 58.5396H116.398V61.619H119.155V58.5396Z" fill="#949494" stroke="#8C8C8C" stroke-linecap="round" stroke-linejoin="round"/>
<path d="M119.155 65.2178H116.398V68.2972H119.155V65.2178Z" fill="#949494" stroke="#8C8C8C" stroke-linecap="round" stroke-linejoin="round"/>
<path d="M119.155 71.8955H116.398V74.9749H119.155V71.8955Z" fill="#949494" stroke="#8C8C8C" stroke-linecap="round" stroke-linejoin="round"/>
<path d="M119.155 78.5684H116.398V81.6478H119.155V78.5684Z" fill="#949494" stroke="#8C8C8C" stroke-linecap="round" stroke-linejoin="round"/>
<path d="M119.155 85.2466H116.398V88.326H119.155V85.2466Z" fill="#949494" stroke="#8C8C8C" stroke-linecap="round" stroke-linejoin="round"/>
<path d="M119.155 91.9243H116.398V95.0038H119.155V91.9243Z" fill="#949494" stroke="#8C8C8C" stroke-linecap="round" stroke-linejoin="round"/>
<path d="M119.155 98.6025H116.398V101.682H119.155V98.6025Z" fill="#949494" stroke="#8C8C8C" stroke-linecap="round" stroke-linejoin="round"/>
<path d="M119.155 105.275H116.398V108.355H119.155V105.275Z" fill="#949494" stroke="#8C8C8C" stroke-linecap="round" stroke-linejoin="round"/>
<path d="M119.155 111.954H116.398V115.033H119.155V111.954Z" fill="#949494" stroke="#8C8C8C" stroke-linecap="round" stroke-linejoin="round"/>
<path d="M119.155 118.631H116.398V121.711H119.155V118.631Z" fill="#949494" stroke="#8C8C8C" stroke-linecap="round" stroke-linejoin="round"/>
<path d="M119.155 125.31H116.398V128.389H119.155V125.31Z" fill="#949494" stroke="#8C8C8C" stroke-linecap="round" stroke-linejoin="round"/>
<path d="M119.155 131.987H116.398V135.067H119.155V131.987Z" fill="#949494" stroke="#8C8C8C" stroke-linecap="round" stroke-linejoin="round"/>
<path d="M119.155 138.661H116.398V141.74H119.155V138.661Z" fill="#949494" stroke="#8C8C8C" stroke-linecap="round" stroke-linejoin="round"/>
<path d="M119.155 145.338H116.398V148.418H119.155V145.338Z" fill="#949494" stroke="#8C8C8C" stroke-linecap="round" stroke-linejoin="round"/>
<path d="M119.155 152.017H116.398V155.096H119.155V152.017Z" fill="#949494" stroke="#8C8C8C" stroke-linecap="round" stroke-linejoin="round"/>
<path d="M119.155 158.694H116.398V161.774H119.155V158.694Z" fill="#949494" stroke="#8C8C8C" stroke-linecap="round" stroke-linejoin="round"/>
<path d="M119.155 165.367H116.398V168.447H119.155V165.367Z" fill="#949494" stroke="#8C8C8C" stroke-linecap="round" stroke-linejoin="round"/>
<path d="M119.155 172.045H116.398V175.125H119.155V172.045Z" fill="#949494" stroke="#8C8C8C" stroke-linecap="round" stroke-linejoin="round"/>
<path d="M119.155 178.724H116.398V181.803H119.155V178.724Z" fill="#949494" stroke="#8C8C8C" stroke-linecap="round" stroke-linejoin="round"/>
<path d="M119.155 185.401H116.398V188.481H119.155V185.401Z" fill="#949494" stroke="#8C8C8C" stroke-linecap="round" stroke-linejoin="round"/>
<path d="M119.155 192.074H116.398V195.154H119.155V192.074Z" fill="#949494" stroke="#8C8C8C" stroke-linecap="round" stroke-linejoin="round"/>
<path d="M119.155 198.752H116.398V201.832H119.155V198.752Z" fill="#949494" stroke="#8C8C8C" stroke-linecap="round" stroke-linejoin="round"/>
<path d="M119.155 205.43H116.398V208.51H119.155V205.43Z" fill="#949494" stroke="#8C8C8C" stroke-linecap="round" stroke-linejoin="round"/>
<path d="M119.155 212.108H116.398V215.188H119.155V212.108Z" fill="#949494" stroke="#8C8C8C" stroke-linecap="round" stroke-linejoin="round"/>
<path d="M119.155 218.786H116.398V221.866H119.155V218.786Z" fill="#949494" stroke="#8C8C8C" stroke-linecap="round" stroke-linejoin="round"/>
<path d="M119.155 225.459H116.398V228.539H119.155V225.459Z" fill="#949494" stroke="#8C8C8C" stroke-linecap="round" stroke-linejoin="round"/>
<path d="M119.155 232.137H116.398V235.217H119.155V232.137Z" fill="#949494" stroke="#8C8C8C" stroke-linecap="round" stroke-linejoin="round"/>
<path d="M119.855 238.815H114.205V241.895H119.855V238.815Z" fill="#949494" stroke="#8C8C8C" stroke-linecap="round" stroke-linejoin="round"/>
<path d="M113.934 71.6636H57.8535V78.4323H113.934V71.6636Z" fill="#92E3A9"/>
<path d="M113.934 70.7163H57.8535V77.485H113.934V70.7163Z" fill="#949494" stroke="#8C8C8C" stroke-linecap="round" stroke-linejoin="round"/>
<path d="M113.934 65.3989H57.8535V77.4849H113.934V65.3989Z" stroke="#8C8C8C" stroke-linecap="round" stroke-linejoin="round"/>
<path d="M113.934 70.7163H96.082V77.485H113.934V70.7163Z" fill="#707070" stroke="#8C8C8C" stroke-linecap="round" stroke-linejoin="round"/>
<path d="M57.8535 70.7164L64.0376 65.6411" stroke="#8C8C8C" stroke-linecap="round" stroke-linejoin="round"/>
<path d="M64.0376 70.7164L57.8535 65.6411" stroke="#8C8C8C" stroke-linecap="round" stroke-linejoin="round"/>
<path d="M64.3145 70.7164L70.4985 65.6411" stroke="#8C8C8C" stroke-linecap="round" stroke-linejoin="round"/>
<path d="M70.4985 70.7164L64.3145 65.6411" stroke="#8C8C8C" stroke-linecap="round" stroke-linejoin="round"/>
<path d="M70.7754 70.7164L76.9595 65.6411" stroke="#8C8C8C" stroke-linecap="round" stroke-linejoin="round"/>
<path d="M76.9595 70.7164L70.7754 65.6411" stroke="#8C8C8C" stroke-linecap="round" stroke-linejoin="round"/>
<path d="M77.2422 70.7164L83.4263 65.6411" stroke="#8C8C8C" stroke-linecap="round" stroke-linejoin="round"/>
<path d="M83.4263 70.7164L77.2422 65.6411" stroke="#8C8C8C" stroke-linecap="round" stroke-linejoin="round"/>
<path d="M83.7031 70.7164L89.8872 65.6411" stroke="#8C8C8C" stroke-linecap="round" stroke-linejoin="round"/>
<path d="M89.8872 70.7164L83.7031 65.6411" stroke="#8C8C8C" stroke-linecap="round" stroke-linejoin="round"/>
<path d="M90.1641 70.7164L96.3481 65.6411" stroke="#8C8C8C" stroke-linecap="round" stroke-linejoin="round"/>
<path d="M96.3481 70.7164L90.1641 65.6411" stroke="#8C8C8C" stroke-linecap="round" stroke-linejoin="round"/>
<path d="M96.6309 70.7164L102.815 65.6411" stroke="#8C8C8C" stroke-linecap="round" stroke-linejoin="round"/>
<path d="M102.815 70.7164L96.6309 65.6411" stroke="#8C8C8C" stroke-linecap="round" stroke-linejoin="round"/>
<path d="M103.092 70.7164L109.276 65.6411" stroke="#8C8C8C" stroke-linecap="round" stroke-linejoin="round"/>
<path d="M109.276 70.7164L103.092 65.6411" stroke="#8C8C8C" stroke-linecap="round" stroke-linejoin="round"/>
<path d="M113.934 110.578H57.8535V117.346H113.934V110.578Z" fill="#92E3A9"/>
<path d="M113.934 109.63H57.8535V116.399H113.934V109.63Z" fill="#949494" stroke="#8C8C8C" stroke-linecap="round" stroke-linejoin="round"/>
<path d="M113.934 104.313H57.8535V116.399H113.934V104.313Z" stroke="#8C8C8C" stroke-linecap="round" stroke-linejoin="round"/>
<path d="M113.934 109.63H96.082V116.399H113.934V109.63Z" fill="#707070" stroke="#8C8C8C" stroke-linecap="round" stroke-linejoin="round"/>
<path d="M57.8535 109.63L64.0376 104.555" stroke="#8C8C8C" stroke-linecap="round" stroke-linejoin="round"/>
<path d="M64.0376 109.63L57.8535 104.555" stroke="#8C8C8C" stroke-linecap="round" stroke-linejoin="round"/>
<path d="M64.3145 109.63L70.4985 104.555" stroke="#8C8C8C" stroke-linecap="round" stroke-linejoin="round"/>
<path d="M70.4985 109.63L64.3145 104.555" stroke="#8C8C8C" stroke-linecap="round" stroke-linejoin="round"/>
<path d="M70.7754 109.63L76.9595 104.555" stroke="#8C8C8C" stroke-linecap="round" stroke-linejoin="round"/>
<path d="M76.9595 109.63L70.7754 104.555" stroke="#8C8C8C" stroke-linecap="round" stroke-linejoin="round"/>
<path d="M77.2422 109.63L83.4263 104.555" stroke="#8C8C8C" stroke-linecap="round" stroke-linejoin="round"/>
<path d="M83.4263 109.63L77.2422 104.555" stroke="#8C8C8C" stroke-linecap="round" stroke-linejoin="round"/>
<path d="M83.7031 109.63L89.8872 104.555" stroke="#8C8C8C" stroke-linecap="round" stroke-linejoin="round"/>
<path d="M89.8872 109.63L83.7031 104.555" stroke="#8C8C8C" stroke-linecap="round" stroke-linejoin="round"/>
<path d="M90.1641 109.63L96.3481 104.555" stroke="#8C8C8C" stroke-linecap="round" stroke-linejoin="round"/>
<path d="M96.3481 109.63L90.1641 104.555" stroke="#8C8C8C" stroke-linecap="round" stroke-linejoin="round"/>
<path d="M96.6309 109.63L102.815 104.555" stroke="#8C8C8C" stroke-linecap="round" stroke-linejoin="round"/>
<path d="M102.815 109.63L96.6309 104.555" stroke="#8C8C8C" stroke-linecap="round" stroke-linejoin="round"/>
<path d="M103.092 109.63L109.276 104.555" stroke="#8C8C8C" stroke-linecap="round" stroke-linejoin="round"/>
<path d="M109.276 109.63L103.092 104.555" stroke="#8C8C8C" stroke-linecap="round" stroke-linejoin="round"/>
<path d="M132.945 245.952H157.641L157.641 31.7522H132.945L132.945 245.952Z" fill="#A3A3A3" stroke="#8C8C8C" stroke-linecap="round" stroke-linejoin="round"/>
<path d="M138.992 245.952H151.592L151.592 31.7522H138.992L138.992 245.952Z" fill="#4F4F4F" stroke="#8C8C8C" stroke-linecap="round" stroke-linejoin="round"/>
<path d="M132.945 42.3359H157.641V31.7519L132.945 31.7519V42.3359Z" fill="#A3A3A3" stroke="#8C8C8C" stroke-linecap="round" stroke-linejoin="round"/>
<path d="M133.827 48.2681H136.584V45.1886H133.827V48.2681Z" fill="#949494" stroke="#8C8C8C" stroke-linecap="round" stroke-linejoin="round"/>
<path d="M133.827 54.9458H136.584V51.8664H133.827V54.9458Z" fill="#949494" stroke="#8C8C8C" stroke-linecap="round" stroke-linejoin="round"/>
<path d="M133.827 61.6191H136.584V58.5397H133.827V61.6191Z" fill="#949494" stroke="#8C8C8C" stroke-linecap="round" stroke-linejoin="round"/>
<path d="M133.827 68.2969H136.584V65.2174H133.827V68.2969Z" fill="#949494" stroke="#8C8C8C" stroke-linecap="round" stroke-linejoin="round"/>
<path d="M133.827 74.9751H136.584V71.8957H133.827V74.9751Z" fill="#949494" stroke="#8C8C8C" stroke-linecap="round" stroke-linejoin="round"/>
<path d="M133.827 81.6528H136.584V78.5734H133.827V81.6528Z" fill="#949494" stroke="#8C8C8C" stroke-linecap="round" stroke-linejoin="round"/>
<path d="M133.827 88.3311H136.584V85.2516H133.827V88.3311Z" fill="#949494" stroke="#8C8C8C" stroke-linecap="round" stroke-linejoin="round"/>
<path d="M133.827 95.0039H136.584V91.9245H133.827V95.0039Z" fill="#949494" stroke="#8C8C8C" stroke-linecap="round" stroke-linejoin="round"/>
<path d="M133.827 101.682H136.584V98.6027H133.827V101.682Z" fill="#949494" stroke="#8C8C8C" stroke-linecap="round" stroke-linejoin="round"/>
<path d="M133.827 108.36H136.584V105.28H133.827V108.36Z" fill="#949494" stroke="#8C8C8C" stroke-linecap="round" stroke-linejoin="round"/>
<path d="M133.827 115.038H136.584V111.959H133.827V115.038Z" fill="#949494" stroke="#8C8C8C" stroke-linecap="round" stroke-linejoin="round"/>
<path d="M133.827 121.711H136.584V118.631H133.827V121.711Z" fill="#949494" stroke="#8C8C8C" stroke-linecap="round" stroke-linejoin="round"/>
<path d="M133.827 128.389H136.584V125.309H133.827V128.389Z" fill="#949494" stroke="#8C8C8C" stroke-linecap="round" stroke-linejoin="round"/>
<path d="M133.827 135.062H136.584V131.983H133.827V135.062Z" fill="#949494" stroke="#8C8C8C" stroke-linecap="round" stroke-linejoin="round"/>
<path d="M133.827 141.745H136.584V138.666H133.827V141.745Z" fill="#949494" stroke="#8C8C8C" stroke-linecap="round" stroke-linejoin="round"/>
<path d="M133.827 148.423H136.584V145.343H133.827V148.423Z" fill="#949494" stroke="#8C8C8C" stroke-linecap="round" stroke-linejoin="round"/>
<path d="M133.827 155.096H136.584V152.016H133.827V155.096Z" fill="#949494" stroke="#8C8C8C" stroke-linecap="round" stroke-linejoin="round"/>
<path d="M133.827 161.774H136.584V158.694H133.827V161.774Z" fill="#949494" stroke="#8C8C8C" stroke-linecap="round" stroke-linejoin="round"/>
<path d="M133.827 168.452H136.584V165.372H133.827V168.452Z" fill="#949494" stroke="#8C8C8C" stroke-linecap="round" stroke-linejoin="round"/>
<path d="M133.827 175.13H136.584V172.05H133.827V175.13Z" fill="#949494" stroke="#8C8C8C" stroke-linecap="round" stroke-linejoin="round"/>
<path d="M133.827 181.803H136.584V178.723H133.827V181.803Z" fill="#949494" stroke="#8C8C8C" stroke-linecap="round" stroke-linejoin="round"/>
<path d="M133.827 188.481H136.584V185.402H133.827V188.481Z" fill="#949494" stroke="#8C8C8C" stroke-linecap="round" stroke-linejoin="round"/>
<path d="M133.827 195.159H136.584V192.079H133.827V195.159Z" fill="#949494" stroke="#8C8C8C" stroke-linecap="round" stroke-linejoin="round"/>
<path d="M133.827 201.837H136.584V198.757H133.827V201.837Z" fill="#949494" stroke="#8C8C8C" stroke-linecap="round" stroke-linejoin="round"/>
<path d="M133.827 208.51H136.584V205.43H133.827V208.51Z" fill="#949494" stroke="#8C8C8C" stroke-linecap="round" stroke-linejoin="round"/>
<path d="M133.827 215.188H136.584V212.109H133.827V215.188Z" fill="#949494" stroke="#8C8C8C" stroke-linecap="round" stroke-linejoin="round"/>
<path d="M133.827 221.866H136.584V218.786H133.827V221.866Z" fill="#949494" stroke="#8C8C8C" stroke-linecap="round" stroke-linejoin="round"/>
<path d="M133.827 228.544H136.584V225.464H133.827V228.544Z" fill="#949494" stroke="#8C8C8C" stroke-linecap="round" stroke-linejoin="round"/>
<path d="M133.827 235.222H136.584V232.142H133.827V235.222Z" fill="#949494" stroke="#8C8C8C" stroke-linecap="round" stroke-linejoin="round"/>
<path d="M133.126 241.895H138.775V238.815H133.126V241.895Z" fill="#949494" stroke="#8C8C8C" stroke-linecap="round" stroke-linejoin="round"/>
<path d="M138.982 78.4272H195.062V71.6585H138.982V78.4272Z" fill="#92E3A9"/>
<path d="M138.982 77.4897H195.062V70.721H138.982V77.4897Z" fill="#949494" stroke="#8C8C8C" stroke-linecap="round" stroke-linejoin="round"/>
<path d="M138.982 77.4897H195.062V65.4038H138.982V77.4897Z" stroke="#8C8C8C" stroke-linecap="round" stroke-linejoin="round"/>
<path d="M138.982 77.4897H156.834V70.721H138.982V77.4897Z" fill="#707070" stroke="#8C8C8C" stroke-linecap="round" stroke-linejoin="round"/>
<path d="M195.063 70.7164L188.879 65.6411" stroke="#8C8C8C" stroke-linecap="round" stroke-linejoin="round"/>
<path d="M188.879 70.7164L195.063 65.6411" stroke="#8C8C8C" stroke-linecap="round" stroke-linejoin="round"/>
<path d="M188.602 70.7164L182.418 65.6411" stroke="#8C8C8C" stroke-linecap="round" stroke-linejoin="round"/>
<path d="M182.418 70.7164L188.602 65.6411" stroke="#8C8C8C" stroke-linecap="round" stroke-linejoin="round"/>
<path d="M182.139 70.7164L175.955 65.6411" stroke="#8C8C8C" stroke-linecap="round" stroke-linejoin="round"/>
<path d="M175.955 70.7164L182.139 65.6411" stroke="#8C8C8C" stroke-linecap="round" stroke-linejoin="round"/>
<path d="M175.674 70.7164L169.49 65.6411" stroke="#8C8C8C" stroke-linecap="round" stroke-linejoin="round"/>
<path d="M169.49 70.7164L175.674 65.6411" stroke="#8C8C8C" stroke-linecap="round" stroke-linejoin="round"/>
<path d="M169.211 70.7164L163.027 65.6411" stroke="#8C8C8C" stroke-linecap="round" stroke-linejoin="round"/>
<path d="M163.027 70.7164L169.211 65.6411" stroke="#8C8C8C" stroke-linecap="round" stroke-linejoin="round"/>
<path d="M162.75 70.7164L156.566 65.6411" stroke="#8C8C8C" stroke-linecap="round" stroke-linejoin="round"/>
<path d="M156.566 70.7164L162.75 65.6411" stroke="#8C8C8C" stroke-linecap="round" stroke-linejoin="round"/>
<path d="M156.286 70.7164L150.102 65.6411" stroke="#8C8C8C" stroke-linecap="round" stroke-linejoin="round"/>
<path d="M150.102 70.7164L156.286 65.6411" stroke="#8C8C8C" stroke-linecap="round" stroke-linejoin="round"/>
<path d="M149.823 70.7164L143.639 65.6411" stroke="#8C8C8C" stroke-linecap="round" stroke-linejoin="round"/>
<path d="M143.639 70.7164L149.823 65.6411" stroke="#8C8C8C" stroke-linecap="round" stroke-linejoin="round"/>
<path d="M138.982 117.341H195.062V110.573H138.982V117.341Z" fill="#92E3A9"/>
<path d="M138.982 116.404H195.062V109.635H138.982V116.404Z" fill="#949494" stroke="#8C8C8C" stroke-linecap="round" stroke-linejoin="round"/>
<path d="M138.982 116.404H195.062V104.318H138.982V116.404Z" stroke="#8C8C8C" stroke-linecap="round" stroke-linejoin="round"/>
<path d="M138.982 116.404H156.834V109.635H138.982V116.404Z" fill="#707070" stroke="#8C8C8C" stroke-linecap="round" stroke-linejoin="round"/>
<path d="M195.063 109.63L188.879 104.555" stroke="#8C8C8C" stroke-linecap="round" stroke-linejoin="round"/>
<path d="M188.879 109.63L195.063 104.555" stroke="#8C8C8C" stroke-linecap="round" stroke-linejoin="round"/>
<path d="M188.602 109.63L182.418 104.555" stroke="#8C8C8C" stroke-linecap="round" stroke-linejoin="round"/>
<path d="M182.418 109.63L188.602 104.555" stroke="#8C8C8C" stroke-linecap="round" stroke-linejoin="round"/>
<path d="M182.139 109.63L175.955 104.555" stroke="#8C8C8C" stroke-linecap="round" stroke-linejoin="round"/>
<path d="M175.955 109.63L182.139 104.555" stroke="#8C8C8C" stroke-linecap="round" stroke-linejoin="round"/>
<path d="M175.674 109.63L169.49 104.555" stroke="#8C8C8C" stroke-linecap="round" stroke-linejoin="round"/>
<path d="M169.49 109.63L175.674 104.555" stroke="#8C8C8C" stroke-linecap="round" stroke-linejoin="round"/>
<path d="M169.211 109.63L163.027 104.555" stroke="#8C8C8C" stroke-linecap="round" stroke-linejoin="round"/>
<path d="M163.027 109.63L169.211 104.555" stroke="#8C8C8C" stroke-linecap="round" stroke-linejoin="round"/>
<path d="M162.75 109.63L156.566 104.555" stroke="#8C8C8C" stroke-linecap="round" stroke-linejoin="round"/>
<path d="M156.566 109.63L162.75 104.555" stroke="#8C8C8C" stroke-linecap="round" stroke-linejoin="round"/>
<path d="M156.286 109.63L150.102 104.555" stroke="#8C8C8C" stroke-linecap="round" stroke-linejoin="round"/>
<path d="M150.102 109.63L156.286 104.555" stroke="#8C8C8C" stroke-linecap="round" stroke-linejoin="round"/>
<path d="M149.823 109.63L143.639 104.555" stroke="#8C8C8C" stroke-linecap="round" stroke-linejoin="round"/>
<path d="M143.639 109.63L149.823 104.555" stroke="#8C8C8C" stroke-linecap="round" stroke-linejoin="round"/>
<path d="M133.695 31.752H119.023V245.952H133.695V31.752Z" fill="#D9D9D9" stroke="#8C8C8C" stroke-linecap="round" stroke-linejoin="round"/>
<path d="M161.278 214.704H157.156H96.3532H92.2305V225.288H96.3532V245.952H157.156V225.288H161.278V214.704Z" fill="white" stroke="#8C8C8C" stroke-linecap="round" stroke-linejoin="round"/>
<path d="M196.918 245.952C197.785 244.65 198.373 243.182 198.645 241.642C198.917 240.101 198.868 238.521 198.5 237.001C198.133 235.481 197.454 234.053 196.508 232.807C195.562 231.561 194.368 230.525 193.002 229.763C191.635 229.001 190.126 228.53 188.569 228.38C187.012 228.229 185.441 228.403 183.954 228.889C182.467 229.375 181.097 230.163 179.93 231.205C178.762 232.246 177.823 233.517 177.171 234.939C176.684 233.616 175.847 232.45 174.749 231.565C173.652 230.68 172.335 230.109 170.938 229.913C169.542 229.717 168.119 229.903 166.82 230.452C165.521 231.001 164.396 231.891 163.563 233.029C163.116 232.409 162.54 231.893 161.874 231.517C161.208 231.142 160.469 230.914 159.707 230.852C159.922 230.201 160.033 229.521 160.035 228.836C160.032 227.719 159.743 226.621 159.196 225.648C158.649 224.674 157.862 223.856 156.91 223.272C156.964 222.862 156.993 222.45 156.996 222.037C156.995 219.632 156.112 217.311 154.515 215.513C152.917 213.716 150.715 212.567 148.327 212.285L146.855 179.197H136.176L134.527 210.778L132.718 175.498H120.38L118.294 210.047L116.928 179.172H106.248L104.519 212.184H104.328C101.721 212.184 99.2215 213.219 97.3784 215.062C95.5352 216.905 94.4998 219.405 94.4998 222.012C94.4998 222.158 94.4998 222.304 94.4998 222.45C94.0046 222.33 93.4973 222.268 92.9878 222.264C91.2501 222.264 89.5836 222.954 88.3548 224.183C87.1261 225.412 86.4358 227.078 86.4358 228.816C86.4377 229.501 86.5483 230.181 86.7634 230.832C86.0015 230.894 85.2623 231.121 84.5967 231.497C83.9311 231.873 83.3549 232.389 82.9078 233.009C82.0751 231.871 80.9494 230.981 79.6506 230.432C78.3518 229.883 76.9286 229.697 75.5323 229.893C74.1361 230.089 72.8191 230.66 71.7216 231.545C70.6241 232.43 69.7871 233.596 69.2998 234.919C68.6355 233.515 67.6896 232.262 66.521 231.238C65.3524 230.215 63.986 229.442 62.5064 228.968C61.0268 228.495 59.4657 228.33 57.9199 228.485C56.3741 228.64 54.8765 229.11 53.5201 229.868C52.1638 230.625 50.9775 231.653 50.0349 232.888C49.0923 234.123 48.4135 235.538 48.0405 237.046C47.6676 238.555 47.6086 240.123 47.867 241.655C48.1255 243.187 48.6959 244.649 49.543 245.952H196.918Z" fill="#007139"/>
<path d="M189.847 245.952C189.288 244.851 188.49 243.889 187.512 243.135C186.534 242.382 185.4 241.856 184.193 241.596C182.986 241.336 181.736 241.349 180.535 241.633C179.333 241.918 178.21 242.467 177.247 243.24C176.971 242.407 176.495 241.654 175.863 241.045C175.23 240.437 174.459 239.991 173.615 239.747C172.772 239.503 171.882 239.468 171.022 239.645C170.162 239.821 169.358 240.204 168.679 240.76C168.404 239.403 167.792 238.136 166.901 237.074C166.011 236.013 164.868 235.192 163.579 234.685C162.29 234.178 160.894 234.001 159.519 234.172C158.144 234.342 156.833 234.854 155.706 235.66C155.589 234.032 155.068 232.459 154.19 231.084C153.312 229.708 152.105 228.573 150.679 227.781C149.252 226.989 147.65 226.565 146.018 226.548C144.386 226.53 142.776 226.92 141.332 227.682C139.864 225.326 137.837 223.369 135.431 221.983C133.025 220.598 130.314 219.828 127.539 219.741C124.765 219.654 122.011 220.252 119.523 221.483C117.035 222.715 114.889 224.541 113.275 226.8C112.454 225.672 111.402 224.732 110.189 224.043C108.977 223.353 107.631 222.93 106.243 222.801C104.854 222.672 103.453 222.84 102.134 223.294C100.816 223.748 99.6087 224.478 98.5939 225.435C97.5792 226.392 96.7799 227.555 96.2492 228.845C95.7186 230.135 95.4688 231.523 95.5164 232.917C95.564 234.311 95.908 235.679 96.5254 236.93C97.1428 238.18 98.0195 239.285 99.0972 240.171C98.9178 240.631 98.7795 241.107 98.6839 241.592C97.6752 240.902 96.5264 240.442 95.3196 240.247C94.1128 240.051 92.8778 240.125 91.7027 240.462C90.5275 240.799 89.4413 241.391 88.5214 242.196C87.6016 243.002 86.8708 244 86.3813 245.12C85.8933 244.451 85.2582 243.903 84.5249 243.518C83.7916 243.133 82.9797 242.922 82.1519 242.901C81.324 242.879 80.5023 243.048 79.7501 243.395C78.9979 243.741 78.3352 244.255 77.8133 244.898C76.9845 243.739 75.8712 242.812 74.5804 242.207C73.2896 241.603 71.8649 241.341 70.4435 241.447C69.0221 241.553 67.6519 242.023 66.4648 242.812C65.2778 243.601 64.3139 244.682 63.666 245.952H189.847Z" fill="#007139"/>
<path opacity="0.3" d="M189.847 245.952C189.288 244.851 188.49 243.889 187.512 243.135C186.534 242.382 185.4 241.856 184.193 241.596C182.986 241.336 181.736 241.349 180.535 241.633C179.333 241.918 178.21 242.467 177.247 243.24C176.971 242.407 176.495 241.654 175.863 241.045C175.23 240.437 174.459 239.991 173.615 239.747C172.772 239.503 171.882 239.468 171.022 239.645C170.162 239.821 169.358 240.204 168.679 240.76C168.404 239.403 167.792 238.136 166.901 237.074C166.011 236.013 164.868 235.192 163.579 234.685C162.29 234.178 160.894 234.001 159.519 234.172C158.144 234.342 156.833 234.854 155.706 235.66C155.589 234.032 155.068 232.459 154.19 231.084C153.312 229.708 152.105 228.573 150.679 227.781C149.252 226.989 147.65 226.565 146.018 226.548C144.386 226.53 142.776 226.92 141.332 227.682C139.864 225.326 137.837 223.369 135.431 221.983C133.025 220.598 130.314 219.828 127.539 219.741C124.765 219.654 122.011 220.252 119.523 221.483C117.035 222.715 114.889 224.541 113.275 226.8C112.454 225.672 111.402 224.732 110.189 224.043C108.977 223.353 107.631 222.93 106.243 222.801C104.854 222.672 103.453 222.84 102.134 223.294C100.816 223.748 99.6087 224.478 98.5939 225.435C97.5792 226.392 96.7799 227.555 96.2492 228.845C95.7186 230.135 95.4688 231.523 95.5164 232.917C95.564 234.311 95.908 235.679 96.5254 236.93C97.1428 238.18 98.0195 239.285 99.0972 240.171C98.9178 240.631 98.7795 241.107 98.6839 241.592C97.6752 240.902 96.5264 240.442 95.3196 240.247C94.1128 240.051 92.8778 240.125 91.7027 240.462C90.5275 240.799 89.4413 241.391 88.5214 242.196C87.6016 243.002 86.8708 244 86.3813 245.12C85.8933 244.451 85.2582 243.903 84.5249 243.518C83.7916 243.133 82.9797 242.922 82.1519 242.901C81.324 242.879 80.5023 243.048 79.7501 243.395C78.9979 243.741 78.3352 244.255 77.8133 244.898C76.9845 243.739 75.8712 242.812 74.5804 242.207C73.2896 241.603 71.8649 241.341 70.4435 241.447C69.0221 241.553 67.6519 242.023 66.4648 242.812C65.2778 243.601 64.3139 244.682 63.666 245.952H189.847Z" fill="black"/>
<path d="M117.17 167.182H106.002L104.605 171.531H118.566L117.17 167.182Z" fill="#D9D9D9" stroke="#263238" stroke-linecap="round" stroke-linejoin="round"/>
<path d="M115.859 174.828H107.317L106.248 179.172H116.928L115.859 174.828Z" fill="#263238" stroke="#263238" stroke-linecap="round" stroke-linejoin="round"/>
<path d="M117.134 174.933H106.036L104.65 171.531H118.526L117.134 174.933Z" fill="#007139" stroke="#263238" stroke-linecap="round" stroke-linejoin="round"/>
<path d="M117.365 93.6934H105.809V167.751H117.365V93.6934Z" fill="white" stroke="#263238" stroke-linecap="round" stroke-linejoin="round"/>
<path d="M113.844 97.6851H109.006V99.3382H113.844V97.6851Z" fill="#263238"/>
<path d="M113.844 100.044H109.006V101.697H113.844V100.044Z" fill="#263238"/>
<path d="M111.584 79.874C111.052 79.8737 110.534 80.0473 110.109 80.3684C109.684 80.6896 109.376 81.1407 109.231 81.6531L105.809 93.7491H117.365L113.938 81.6531C113.793 81.1407 113.485 80.6896 113.06 80.3684C112.635 80.0473 112.117 79.8737 111.584 79.874Z" fill="#D9D9D9" stroke="#263238" stroke-linecap="round" stroke-linejoin="round"/>
<path d="M147.214 167.182H136.05L134.654 171.531H148.61L147.214 167.182Z" fill="#D9D9D9" stroke="#263238" stroke-linecap="round" stroke-linejoin="round"/>
<path d="M145.902 174.828H137.359L136.291 179.172H146.971L145.902 174.828Z" fill="#263238" stroke="#263238" stroke-linecap="round" stroke-linejoin="round"/>
<path d="M147.182 174.933H136.079L134.693 171.531H148.568L147.182 174.933Z" fill="#007139" stroke="#263238" stroke-linecap="round" stroke-linejoin="round"/>
<path d="M147.41 93.6934H135.854V167.751H147.41V93.6934Z" fill="white" stroke="#263238" stroke-linecap="round" stroke-linejoin="round"/>
<path d="M140.867 100.8C140.867 100.155 141.19 99.7363 141.835 99.7363C142.48 99.7363 142.808 100.155 142.808 100.8V102.982C142.808 103.627 142.49 104.051 141.835 104.051C141.18 104.051 140.867 103.627 140.867 102.982V100.8ZM141.331 103.012C141.331 103.395 141.497 103.622 141.835 103.622C142.173 103.622 142.339 103.395 142.339 103.012V100.8C142.339 100.417 142.178 100.185 141.835 100.185C141.492 100.185 141.331 100.417 141.331 100.8V103.012Z" fill="#263238"/>
<path d="M141.383 108.773C141.445 108.663 141.537 108.572 141.648 108.51C141.76 108.449 141.886 108.419 142.013 108.426C142.557 108.426 142.799 108.824 142.799 109.434V110.26C142.799 110.905 142.491 111.329 141.841 111.329C141.191 111.329 140.894 110.905 140.894 110.26V109.978H141.332V110.29C141.332 110.673 141.493 110.9 141.836 110.9C142.179 110.9 142.34 110.673 142.34 110.29V109.469C142.34 109.086 142.184 108.859 141.836 108.859C141.773 108.852 141.708 108.858 141.647 108.878C141.586 108.898 141.53 108.93 141.482 108.973C141.435 109.015 141.397 109.068 141.371 109.127C141.345 109.185 141.332 109.249 141.332 109.313V109.408H140.889L141.005 107.055H142.673V107.478H141.428L141.383 108.773Z" fill="#263238"/>
<path d="M142.802 115.325V115.416H142.359V115.305C142.359 114.922 142.202 114.7 141.855 114.7C141.507 114.7 141.351 114.932 141.351 115.38V116.333C141.399 116.193 141.492 116.073 141.614 115.992C141.737 115.91 141.884 115.87 142.031 115.879C142.575 115.879 142.817 116.273 142.817 116.887V117.527C142.817 118.173 142.5 118.596 141.85 118.596C141.2 118.596 140.877 118.173 140.877 117.527V115.37C140.877 114.7 141.179 114.282 141.85 114.282C142.52 114.282 142.802 114.68 142.802 115.325ZM141.346 116.928V117.563C141.346 117.946 141.502 118.173 141.85 118.173C142.197 118.173 142.354 117.946 142.354 117.563V116.928C142.354 116.55 142.192 116.318 141.85 116.318C141.507 116.318 141.346 116.53 141.346 116.928Z" fill="#263238"/>
<path d="M142.804 122.588V124.745C142.804 125.415 142.502 125.839 141.826 125.839C141.151 125.839 140.869 125.425 140.869 124.775V124.7H141.312V124.805C141.312 125.188 141.473 125.41 141.816 125.41C142.159 125.41 142.32 125.183 142.32 124.735V123.787C142.271 123.926 142.178 124.044 142.055 124.124C141.932 124.204 141.786 124.242 141.64 124.231C141.095 124.231 140.854 123.848 140.854 123.223V122.573C140.854 121.928 141.166 121.509 141.821 121.509C142.476 121.509 142.804 121.968 142.804 122.588ZM141.327 122.588V123.223C141.327 123.606 141.494 123.833 141.831 123.833C142.169 123.833 142.335 123.606 142.335 123.223V122.588C142.335 122.205 142.179 121.978 141.831 121.978C141.484 121.978 141.327 122.18 141.327 122.563V122.588Z" fill="#263238"/>
<path d="M141.816 131.231L141.12 133.056H140.672L141.524 130.874L140.727 128.822H141.231L141.887 130.516L142.547 128.822H142.985L142.194 130.874L143.041 133.056H142.537L141.816 131.231Z" fill="#263238"/>
<path d="M141.623 79.874C141.091 79.8745 140.573 80.0484 140.149 80.3694C139.724 80.6905 139.415 81.1411 139.27 81.6531L135.848 93.7491H147.404L143.977 81.6531C143.832 81.1407 143.524 80.6896 143.099 80.3684C142.674 80.0473 142.156 79.8737 141.623 79.874Z" fill="#D9D9D9" stroke="#263238" stroke-linecap="round" stroke-linejoin="round"/>
<path d="M134.281 28.1484H118.768V52.154H134.281V28.1484Z" fill="white" stroke="#263238" stroke-linecap="round" stroke-linejoin="round"/>
<path d="M132.733 55.4149H120.32L118.768 52.1943H134.286L132.733 55.4149Z" fill="#007139" stroke="#263238" stroke-linecap="round" stroke-linejoin="round"/>
<path d="M132.733 85.4584H120.32L118.768 82.2378H134.286L132.733 85.4584Z" fill="#263238" stroke="#263238" stroke-linecap="round" stroke-linejoin="round"/>
<path d="M134.281 58.5801H118.768V82.5856H134.281V58.5801Z" fill="white" stroke="#263238" stroke-linecap="round" stroke-linejoin="round"/>
<path d="M132.733 55.314H120.32L118.768 58.5345H134.286L132.733 55.314Z" fill="#D9D9D9" stroke="#263238" stroke-linecap="round" stroke-linejoin="round"/>
<path d="M134.281 88.623H118.768V166.315H134.281V88.623Z" fill="white" stroke="#263238" stroke-linecap="round" stroke-linejoin="round"/>
<path d="M118.783 95.7598H134.291" stroke="#263238" stroke-linecap="round" stroke-linejoin="round"/>
<path d="M118.783 107.04H134.291" stroke="#263238" stroke-linecap="round" stroke-linejoin="round"/>
<path d="M118.783 118.319H134.291" stroke="#263238" stroke-linecap="round" stroke-linejoin="round"/>
<path d="M118.783 129.599H134.291" stroke="#263238" stroke-linecap="round" stroke-linejoin="round"/>
<path d="M118.783 140.873H134.291" stroke="#263238" stroke-linecap="round" stroke-linejoin="round"/>
<path d="M126.303 129.599V140.641" stroke="#263238" stroke-linecap="round" stroke-linejoin="round"/>
<path d="M131.691 171.299H121.55L120.285 175.644H132.961L131.691 171.299Z" fill="#263238" stroke="#263238" stroke-linecap="round" stroke-linejoin="round"/>
<path d="M132.687 171.617H120.359L118.822 166.32H134.23L132.687 171.617Z" fill="#007139" stroke="#263238" stroke-linecap="round" stroke-linejoin="round"/>
<path d="M126.503 156.068C124.904 156.075 123.372 156.715 122.243 157.849C121.114 158.982 120.48 160.517 120.48 162.116V171.335H132.551V162.096C132.546 160.496 131.906 158.962 130.773 157.833C129.639 156.703 128.104 156.068 126.503 156.068V156.068Z" stroke="#263238" stroke-linecap="round" stroke-linejoin="round"/>
<path d="M132.733 85.3623H120.32L118.768 88.5778H134.286L132.733 85.3623Z" fill="#263238" stroke="#263238" stroke-linecap="round" stroke-linejoin="round"/>
<path d="M126.504 13.6079C125.606 13.6102 124.732 13.8974 124.007 14.4281C123.283 14.9588 122.745 15.7058 122.472 16.5614L118.758 28.1887H134.271L130.561 16.5614C130.287 15.7017 129.746 14.9518 129.016 14.4207C128.287 13.8896 127.407 13.6049 126.504 13.6079Z" fill="#D9D9D9" stroke="#263238" stroke-linecap="round" stroke-linejoin="round"/>
<path d="M120.319 143.968H115.879V145.273H120.319V143.968Z" fill="white" stroke="#263238" stroke-linecap="round" stroke-linejoin="round"/>
<path d="M137.042 143.968H132.602V145.273H137.042V143.968Z" fill="white" stroke="#263238" stroke-linecap="round" stroke-linejoin="round"/>
<path d="M19.1523 245.952H234.36" stroke="#263238" stroke-linecap="round" stroke-linejoin="round"/>
</svg>
