<svg width="322" height="281" viewBox="0 0 322 281" fill="none" xmlns="http://www.w3.org/2000/svg">
<g clip-path="url(#clip0_1060_839)">
<path d="M67.2584 44.0657C67.2584 44.0657 29.9424 78.2916 37.0623 125.777C44.1823 173.262 87.8452 209.935 122.208 240.45C156.571 270.964 205.352 275.154 240.542 251.801C275.732 228.447 256.722 198.913 276.605 156.808C296.489 114.703 309.453 105.783 298.785 62.2113C288.116 18.6394 224.253 -8.88948 160.684 2.62642C97.1143 14.1423 67.2584 44.0657 67.2584 44.0657Z" fill="#007139"/>
<path opacity="0.7" d="M67.2584 44.0657C67.2584 44.0657 29.9424 78.2916 37.0623 125.777C44.1823 173.262 87.8452 209.935 122.208 240.45C156.571 270.964 205.352 275.154 240.542 251.801C275.732 228.447 256.722 198.913 276.605 156.808C296.489 114.703 309.453 105.783 298.785 62.2113C288.116 18.6394 224.253 -8.88948 160.684 2.62642C97.1143 14.1423 67.2584 44.0657 67.2584 44.0657Z" fill="white"/>
<path d="M228.049 36.7484H172.218L172.782 28.8691H228.613L228.049 36.7484Z" fill="#CCCCCC"/>
<path d="M228.049 47.7855H172.218L172.782 39.9062H228.613L228.049 47.7855Z" fill="#CCCCCC"/>
<path d="M228.049 58.8301H172.218L172.782 50.9434H228.613L228.049 58.8301Z" fill="#CCCCCC"/>
<path d="M228.049 69.8672H172.218L172.782 61.9805H228.613L228.049 69.8672Z" fill="#CCCCCC"/>
<path d="M228.049 80.9044H172.218L172.782 73.0176H228.613L228.049 80.9044Z" fill="#CCCCCC"/>
<path d="M228.049 91.9418H172.218L172.782 84.0625H228.613L228.049 91.9418Z" fill="#CCCCCC"/>
<path d="M228.049 102.979H172.218L172.782 95.0996H228.613L228.049 102.979Z" fill="#CCCCCC"/>
<path d="M228.049 114.022H172.218L172.782 106.135H228.613L228.049 114.022Z" fill="#CCCCCC"/>
<path d="M228.049 125.059H172.218L172.782 117.172H228.613L228.049 125.059Z" fill="#CCCCCC"/>
<path d="M228.049 136.096H172.218L172.782 128.209H228.613L228.049 136.096Z" fill="#CCCCCC"/>
<path d="M228.049 147.135H172.218L172.782 139.248H228.613L228.049 147.135Z" fill="#CCCCCC"/>
<path d="M287.088 36.7484H231.249L231.813 28.8691H287.652L287.088 36.7484Z" fill="#CCCCCC"/>
<path d="M287.088 47.7855H231.249L231.813 39.9062H287.652L287.088 47.7855Z" fill="#CCCCCC"/>
<path d="M287.088 58.8301H231.249L231.813 50.9434H287.652L287.088 58.8301Z" fill="#CCCCCC"/>
<path d="M287.088 69.8672H231.249L231.813 61.9805H287.652L287.088 69.8672Z" fill="#CCCCCC"/>
<path d="M287.088 80.9044H231.249L231.813 73.0176H287.652L287.088 80.9044Z" fill="#CCCCCC"/>
<path d="M287.088 91.9418H231.249L231.813 84.0625H287.652L287.088 91.9418Z" fill="#CCCCCC"/>
<path d="M287.088 102.979H231.249L231.813 95.0996H287.652L287.088 102.979Z" fill="#CCCCCC"/>
<path d="M287.088 114.022H231.249L231.813 106.135H287.652L287.088 114.022Z" fill="#CCCCCC"/>
<path d="M287.088 125.059H231.249L231.813 117.172H287.652L287.088 125.059Z" fill="#CCCCCC"/>
<path d="M287.088 136.096H231.249L231.813 128.209H287.652L287.088 136.096Z" fill="#CCCCCC"/>
<path d="M287.088 147.135H231.249L231.813 139.248H287.652L287.088 147.135Z" fill="#CCCCCC"/>
<path d="M164.387 28.4336H49.0293V124.227H164.387V28.4336Z" fill="#007139"/>
<path d="M158.612 33.2227H54.7969V119.439H158.612V33.2227Z" fill="white"/>
<path d="M158.612 59.3594C139.943 72.2147 113.202 80.745 82.179 94.1465C72.4035 98.3014 63.2044 103.626 54.7969 109.995V119.446H158.612V59.3594Z" fill="#92E3A9"/>
<path d="M158.612 33.2227H116.952C112.313 37.0613 106.832 41.3489 100.354 45.9433C76.644 62.7719 86.9181 79.6155 115.375 67.3588C129.978 61.0808 146.236 46.5419 158.612 33.8736V33.2227Z" fill="#92E3A9"/>
<path d="M72.7325 42.891C72.7325 35.8647 63.6953 41.3945 54.8359 48.4581V66.1997C63.4557 58.0136 72.7325 49.1765 72.7325 42.891Z" fill="#92E3A9"/>
<path d="M81.3907 70.8157C81.3907 72.4052 80.9037 73.959 79.9914 75.2805C79.0791 76.6021 77.7824 77.6322 76.2653 78.2404C74.7481 78.8487 73.0787 79.0078 71.4681 78.6978C69.8576 78.3877 68.3781 77.6223 67.217 76.4984C66.0558 75.3744 65.2651 73.9425 64.9447 72.3836C64.6243 70.8247 64.7888 69.2088 65.4172 67.7403C66.0456 66.2719 67.1098 65.0167 68.4752 64.1337C69.8405 63.2506 71.4458 62.7793 73.0879 62.7793C75.29 62.7793 77.4018 63.626 78.9589 65.1331C80.5159 66.6402 81.3907 68.6843 81.3907 70.8157Z" fill="#92E3A9"/>
<path opacity="0.75" d="M158.612 59.3594C139.943 72.2147 113.202 80.745 82.179 94.1465C72.4035 98.3014 63.2044 103.626 54.7969 109.995V119.446H158.612V59.3594Z" fill="white"/>
<path opacity="0.75" d="M158.612 33.2227H116.952C112.313 37.0613 106.832 41.3489 100.354 45.9433C76.644 62.7719 86.9181 79.6155 115.375 67.3588C129.978 61.0808 146.236 46.5419 158.612 33.8736V33.2227Z" fill="white"/>
<g opacity="0.75">
<path d="M72.7325 42.891C72.7325 35.8647 63.6953 41.3945 54.8359 48.4581V66.1997C63.4557 58.0136 72.7325 49.1765 72.7325 42.891Z" fill="white"/>
</g>
<path opacity="0.75" d="M81.3907 70.8157C81.3907 72.4052 80.9037 73.959 79.9914 75.2805C79.0791 76.6021 77.7824 77.6322 76.2653 78.2404C74.7481 78.8487 73.0787 79.0078 71.4681 78.6978C69.8576 78.3877 68.3781 77.6223 67.217 76.4984C66.0558 75.3744 65.2651 73.9425 64.9447 72.3836C64.6243 70.8247 64.7888 69.2088 65.4172 67.7403C66.0456 66.2719 67.1098 65.0167 68.4752 64.1337C69.8405 63.2506 71.4458 62.7793 73.0879 62.7793C75.29 62.7793 77.4018 63.626 78.9589 65.1331C80.5159 66.6402 81.3907 68.6843 81.3907 70.8157Z" fill="white"/>
<path d="M140.669 96.4438C140.669 98.5634 140.02 100.635 138.803 102.398C137.586 104.16 135.857 105.533 133.833 106.344C131.81 107.155 129.584 107.367 127.436 106.953C125.288 106.539 123.316 105.517 121.768 104.018C120.22 102.519 119.166 100.609 118.74 98.5296C118.314 96.4506 118.534 94.2959 119.373 92.338C120.212 90.3802 121.632 88.7072 123.454 87.5307C125.275 86.3542 127.417 85.727 129.606 85.7285C131.06 85.7285 132.499 86.0057 133.842 86.5443C135.184 87.0829 136.404 87.8723 137.432 88.8674C138.459 89.8625 139.274 91.0438 139.829 92.3438C140.385 93.6438 140.67 95.037 140.669 96.4438Z" fill="white"/>
<path d="M296.721 225.888C294.714 228.141 293.359 230.867 292.794 233.79L284.916 238.063V217.859L285.071 218.061L297.617 209.172C299.202 209.411 305.294 210.085 310.845 207.189C317.292 203.829 322 192.321 322 192.321C322 192.321 306.631 190.637 301.429 196.878C297.208 201.936 297.061 206.837 297.161 208.506L284.916 217.178V202.25C287.209 201.217 289.236 199.702 290.85 197.817C292.464 195.931 293.624 193.721 294.247 191.348C296.473 182.952 284.584 166.408 284.584 166.408C284.584 166.408 272.214 183.439 274.665 192.074C276.768 199.385 282.396 201.704 284.089 202.243V234.606L275.276 227.475C275.477 225.769 275.639 220.433 270.73 215.091C264.778 208.611 248.922 209.105 248.922 209.105C248.922 209.105 255.609 222.057 261.291 226.375C266.27 230.116 273.142 228.62 274.796 228.163L284.073 235.646V245.486H270.274L275.91 279.577H292.817L298.468 245.493H284.916V238.983L293.574 234.284C295.677 234.853 301.56 236.02 307.126 233.326C314.084 229.966 319.766 222.768 319.766 222.768C319.766 222.768 303.168 218.69 296.721 225.888Z" fill="#007139"/>
<path opacity="0.5" d="M296.721 225.888C294.714 228.141 293.359 230.867 292.794 233.79L284.916 238.063V217.859L285.071 218.061L297.617 209.172C299.202 209.411 305.294 210.085 310.845 207.189C317.292 203.829 322 192.321 322 192.321C322 192.321 306.631 190.637 301.429 196.878C297.208 201.936 297.061 206.837 297.161 208.506L284.916 217.178V202.25C287.209 201.217 289.236 199.702 290.85 197.817C292.464 195.931 293.624 193.721 294.247 191.348C296.473 182.952 284.584 166.408 284.584 166.408C284.584 166.408 272.214 183.439 274.665 192.074C276.768 199.385 282.396 201.704 284.089 202.243V234.606L275.276 227.475C275.477 225.769 275.639 220.433 270.73 215.091C264.778 208.611 248.922 209.105 248.922 209.105C248.922 209.105 255.609 222.057 261.291 226.375C266.27 230.116 273.142 228.62 274.796 228.163L284.073 235.646V245.486H270.274L275.91 279.577H292.817L298.468 245.493H284.916V238.983L293.574 234.284C295.677 234.853 301.56 236.02 307.126 233.326C314.084 229.966 319.766 222.768 319.766 222.768C319.766 222.768 303.168 218.69 296.721 225.888Z" fill="white"/>
<path d="M281.098 122.889L258.346 123.076C258.346 123.076 256.8 122.889 256.468 123.981C256.468 123.981 252.517 133.634 252.332 137.091C252.146 140.548 253.105 140.002 251.559 144.574C250.012 149.146 245.73 159.861 243.287 168.601C240.001 180.341 239.143 192.807 238.934 204.929C238.934 206.875 237.697 223.636 240.828 223.636C243.426 223.636 267.368 226.712 267.654 222.244C268.806 204.435 265.482 187.038 271.867 169.723C274.349 162.989 277.194 155.895 279.304 148.861C281.414 141.828 281.778 134.51 283.169 127.311C284.105 122.343 281.098 122.889 281.098 122.889Z" fill="#263238"/>
<path d="M283.331 125.073C283.107 122.529 281.097 122.889 281.097 122.889L258.346 123.076C258.346 123.076 256.8 122.889 256.467 123.981C256.467 123.981 252.517 133.634 252.331 137.091C252.276 138.004 252.301 138.92 252.409 139.829L252.888 140.578C252.888 140.578 253.661 146.945 262.667 147.312C271.674 147.679 276.776 143.668 278.654 139.829C280.533 135.991 281.291 129.818 282.79 126.173C282.951 125.798 283.132 125.431 283.331 125.073Z" fill="#92E3A9"/>
<path d="M278.052 132.183C276.505 137.503 277.441 138.977 275.918 148.136C274.395 157.295 268.898 167.591 266.757 177.087C264.616 186.582 265.543 219.918 265.845 221.399C265.964 222.184 266.008 222.978 265.976 223.771C267.004 223.397 267.623 222.888 267.669 222.193C268.821 204.384 265.497 186.986 271.882 169.671C274.364 162.937 277.209 155.843 279.319 148.81C281.43 141.776 281.793 134.458 283.185 127.259C283.764 124.266 282.852 123.286 282.056 122.994C280.327 125.882 278.982 128.969 278.052 132.183Z" fill="#92E3A9"/>
<path d="M234.102 266.594L233.947 266.474V245.912H237.001V232.914H225.714V245.912H228.76V266.826L201.749 275.161V277.227C201.749 277.854 202.006 278.455 202.465 278.899C202.923 279.342 203.544 279.591 204.192 279.591C204.84 279.591 205.461 279.342 205.919 278.899C206.377 278.455 206.635 277.854 206.635 277.227V276.935L229.224 274.391V277.526C229.224 278.074 229.449 278.599 229.849 278.986C230.249 279.374 230.792 279.591 231.358 279.591C231.923 279.591 232.466 279.374 232.866 278.986C233.266 278.599 233.491 278.074 233.491 277.526V274.286L256.993 276.935V277.227C256.993 277.854 257.25 278.455 257.708 278.899C258.166 279.342 258.788 279.591 259.435 279.591C260.083 279.591 260.705 279.342 261.163 278.899C261.621 278.455 261.878 277.854 261.878 277.227V275.161L234.102 266.594Z" fill="#263238"/>
<path d="M266.308 220.238H199.229C197.521 220.238 196.137 221.578 196.137 223.231V232.323C196.137 233.976 197.521 235.316 199.229 235.316H266.308C268.016 235.316 269.4 233.976 269.4 232.323V223.231C269.4 221.578 268.016 220.238 266.308 220.238Z" fill="#263238"/>
<path d="M2.25883 122.889L25.0102 123.076C25.0102 123.076 26.5564 122.889 26.8965 123.981C26.8965 123.981 30.8469 133.634 31.0325 137.091C31.218 140.548 30.2594 140.002 31.8055 144.574C33.3517 149.146 37.6345 159.861 40.0774 168.601C43.3706 180.341 44.221 192.807 44.4297 204.929C44.4297 206.875 45.6666 223.636 42.5357 223.636C39.9459 223.636 16.004 226.712 15.7102 222.244C14.5661 204.435 17.8826 187.038 11.497 169.723C9.01545 162.989 6.17056 155.895 4.06781 148.861C1.96507 141.828 1.59399 134.51 0.202468 127.311C-0.709753 122.343 2.25883 122.889 2.25883 122.889Z" fill="#263238"/>
<path d="M0.0634766 125.073C0.287667 122.529 2.28992 122.889 2.28992 122.889L25.0413 123.076C25.0413 123.076 26.5875 122.889 26.9276 123.981C26.9276 123.981 30.878 133.634 31.0635 137.091C31.1139 138.004 31.0854 138.92 30.9785 139.829L30.4992 140.578C30.4992 140.578 29.7261 146.945 20.7199 147.312C11.7136 147.679 6.58818 143.668 4.70189 139.822C2.8156 135.976 2.07346 129.81 0.565973 126.166C0.420515 125.793 0.252732 125.428 0.0634766 125.073Z" fill="#92E3A9"/>
<path d="M5.30462 132.183C6.85076 137.503 5.91535 138.977 7.43829 148.136C8.96124 157.295 14.4655 167.591 16.5992 177.087C18.7328 186.582 17.8438 219.918 17.5114 221.399C17.3955 222.185 17.3515 222.978 17.38 223.771C16.3595 223.397 15.7333 222.888 15.6869 222.193C14.5428 204.384 17.8593 186.986 11.4737 169.671C8.99216 162.937 6.14727 155.843 4.04452 148.81C1.94177 141.776 1.5707 134.458 0.179176 127.259C-0.392895 124.266 0.519326 123.286 1.30786 122.994C3.03788 125.88 4.38095 128.968 5.30462 132.183Z" fill="#92E3A9"/>
<path d="M49.2538 266.594L49.4084 266.474V245.912H46.3161V232.914H57.6107V245.912H54.557V266.826L81.568 275.161V277.227C81.568 277.854 81.3107 278.455 80.8525 278.899C80.3944 279.342 79.7731 279.591 79.1252 279.591C78.4773 279.591 77.8559 279.342 77.3978 278.899C76.9396 278.455 76.6823 277.854 76.6823 277.227V276.935L54.1782 274.391V277.526C54.1455 278.053 53.906 278.548 53.5087 278.911C53.1115 279.273 52.5864 279.474 52.0407 279.474C51.495 279.474 50.9699 279.273 50.5727 278.911C50.1754 278.548 49.9359 278.053 49.9032 277.526V274.286L26.3477 276.935V277.227C26.3664 277.548 26.3172 277.869 26.2031 278.172C26.089 278.474 25.9123 278.75 25.684 278.984C25.4557 279.218 25.1805 279.404 24.8752 279.531C24.57 279.659 24.2411 279.724 23.9087 279.724C23.5763 279.724 23.2475 279.659 22.9422 279.531C22.637 279.404 22.3617 279.218 22.1334 278.984C21.9051 278.75 21.7285 278.474 21.6143 278.172C21.5002 277.869 21.451 277.548 21.4697 277.227V275.161L49.2538 266.594Z" fill="#263238"/>
<path d="M17.0473 235.309H84.1265C85.8343 235.309 87.2188 233.969 87.2188 232.316V223.224C87.2188 221.571 85.8343 220.231 84.1265 220.231H17.0473C15.3395 220.231 13.955 221.571 13.955 223.224V232.316C13.955 233.969 15.3395 235.309 17.0473 235.309Z" fill="#263238"/>
<path d="M252.857 177.895H69.1758V280.078H252.857V177.895Z" fill="#CCCCCC"/>
<path d="M252.717 180.348H69.2676V183.176H252.717V180.348Z" fill="#263238"/>
<path d="M254.217 176.219H65.0859V180.686H254.217V176.219Z" fill="#CCCCCC"/>
<path d="M118.081 167.344C118.081 167.344 120.245 176.705 120.121 179.316C119.998 181.928 114.903 188.924 114.772 187.323C114.815 185.966 115.119 184.628 115.669 183.379C115.669 183.379 113.883 185.721 113.249 185.624C112.615 185.527 113.759 182.294 113.759 182.294C113.759 182.294 111.85 184.142 111.208 183.791C110.566 183.439 112.607 180.708 112.607 180.708C112.607 180.708 110.288 183.05 110.195 182.309C110.102 181.568 112.228 178.493 112.228 178.493C112.228 178.493 110.064 174.056 109.909 172.208C109.923 170.917 110.368 169.665 111.177 168.638L118.081 167.344Z" fill="white"/>
<path d="M118.081 167.342C118.081 167.342 120.245 176.703 120.121 179.314C119.998 181.926 114.903 188.922 114.772 187.321C114.815 185.964 115.119 184.626 115.669 183.377C115.669 183.377 113.883 185.719 113.249 185.622C112.615 185.525 113.759 182.292 113.759 182.292C113.759 182.292 111.85 184.14 111.208 183.789C110.566 183.437 112.607 180.706 112.607 180.706C112.607 180.706 110.288 183.048 110.195 182.307C110.102 181.566 112.228 178.491 112.228 178.491C112.228 178.491 110.064 174.054 109.909 172.206C109.923 170.915 110.368 169.663 111.177 168.636L118.081 167.342Z" fill="#D9D9D9"/>
<path d="M118.081 167.344C118.081 167.344 120.245 176.705 120.121 179.316C119.998 181.928 114.903 188.924 114.772 187.323C114.815 185.966 115.119 184.628 115.669 183.379C115.669 183.379 113.883 185.721 113.249 185.624C112.615 185.527 113.759 182.294 113.759 182.294C113.759 182.294 111.85 184.142 111.208 183.791C110.566 183.439 112.607 180.708 112.607 180.708C112.607 180.708 110.288 183.05 110.195 182.309C110.102 181.568 112.228 178.493 112.228 178.493C112.228 178.493 110.064 174.056 109.909 172.208C109.923 170.917 110.368 169.665 111.177 168.638L118.081 167.344Z" stroke="#263238" stroke-linecap="round" stroke-linejoin="round"/>
<path d="M117.571 167.344C117.571 167.344 119.117 173.876 118.978 175.724C118.838 177.573 116.937 182.99 115.537 182.002C114.138 181.015 116.426 177.326 116.426 177.326C116.426 177.326 112.499 174.654 111.595 172.148C110.69 169.641 111.208 168.578 111.208 168.578L117.571 167.344Z" fill="white"/>
<path d="M117.571 167.342C117.571 167.342 119.117 173.874 118.978 175.722C118.838 177.571 116.937 182.988 115.537 182C114.138 181.013 116.426 177.324 116.426 177.324C116.426 177.324 112.499 174.652 111.595 172.146C110.69 169.639 111.208 168.576 111.208 168.576L117.571 167.342Z" fill="#D9D9D9"/>
<path d="M117.571 167.344C117.571 167.344 119.117 173.876 118.978 175.724C118.838 177.573 116.937 182.99 115.537 182.002C114.138 181.015 116.426 177.326 116.426 177.326C116.426 177.326 112.499 174.654 111.595 172.148C110.69 169.641 111.208 168.578 111.208 168.578L117.571 167.344Z" stroke="#263238" stroke-linecap="round" stroke-linejoin="round"/>
<path d="M112.908 136.732L118.328 167.973L110.69 169.641L103.052 145.555L112.908 136.732Z" fill="#263238" stroke="#263238" stroke-linecap="round" stroke-linejoin="round"/>
<path d="M110.69 151.997C110.69 151.997 111.185 189.201 111.919 199.22C112.654 209.24 109.948 222.596 107.489 226.413C105.031 230.229 94.1772 254.099 94.672 255.513C95.1667 256.927 97.3855 261.237 97.3855 262.427V267.433C97.3855 267.433 109.7 275.305 110.69 275.305C111.68 275.305 112.909 277.213 110.443 278.65C107.976 280.086 80.3779 280.079 79.1488 279.121C78.3379 278.417 77.7417 277.511 77.4248 276.502C77.4248 276.502 73.4822 277.931 73.7295 274.354C73.9769 270.778 78.4066 255.513 78.4066 255.513C78.4066 255.513 75.7009 238.812 76.6827 228.081C77.6645 217.351 81.1201 204.466 81.1201 201.847C81.1201 199.228 77.6722 181.808 77.1774 178.95C76.6827 176.091 69.5395 167.973 72.74 161.538C75.9405 155.102 78.4066 144.836 79.3961 144.125C80.3857 143.414 93.6902 142.928 99.1094 144.125C104.529 145.322 110.443 145.315 110.69 151.997Z" fill="#263238" stroke="#263238" stroke-linecap="round" stroke-linejoin="round"/>
<path d="M86.2609 77.0038C86.2609 77.0038 82.0476 80.6554 81.321 81.92C80.5943 83.1846 71.7504 95.3889 71.6035 104.114C71.4566 112.839 78.1436 139.223 78.1436 139.223L68.0938 163.968L71.0005 165.09L73.8995 162V166.639C73.8995 166.639 77.2392 169.587 85.9439 172.394C94.6487 175.2 105.827 171.974 105.827 171.974L109.159 151.442V171.698L113.079 169.168L113.396 135.436C113.396 135.436 116.588 117.321 116.588 112.24C116.588 107.159 107.737 91.2883 103.817 86.679C99.8978 82.0696 93.3654 78.2534 91.4482 76.8467C89.531 75.4399 86.2609 77.0038 86.2609 77.0038Z" fill="#263238"/>
<path opacity="0.17" d="M86.2609 77.0038C86.2609 77.0038 82.0476 80.6554 81.321 81.92C80.5943 83.1846 71.7504 95.3889 71.6035 104.114C71.4566 112.839 78.1436 139.223 78.1436 139.223L68.0938 163.968L71.0005 165.09L73.8995 162V166.639C73.8995 166.639 77.2392 169.587 85.9439 172.394C94.6487 175.2 105.827 171.974 105.827 171.974L109.159 151.442V171.698L113.079 169.168L113.396 135.436C113.396 135.436 116.588 117.321 116.588 112.24C116.588 107.159 107.737 91.2883 103.817 86.679C99.8978 82.0696 93.3654 78.2534 91.4482 76.8467C89.531 75.4399 86.2609 77.0038 86.2609 77.0038Z" fill="white"/>
<path d="M73.8613 106.912C73.8613 106.912 79.1337 110.526 82.6434 111.798" stroke="#263238" stroke-linecap="round" stroke-linejoin="round"/>
<path d="M75.3984 110.744C75.3984 110.744 81.3279 112.241 84.397 112.241" stroke="#263238" stroke-linecap="round" stroke-linejoin="round"/>
<path d="M83.9648 144.73L100.648 146.646L99.5499 150.043L84.1813 148.345" stroke="#263238" stroke-linecap="round" stroke-linejoin="round"/>
<path d="M86.2609 77.0038C86.2609 77.0038 82.0476 80.6554 81.321 81.92C80.5943 83.1846 71.7504 95.3889 71.6035 104.114C71.4566 112.839 78.1436 139.223 78.1436 139.223L68.0938 163.968L71.0005 165.09L73.8995 162V166.639C73.8995 166.639 77.2392 169.587 85.9439 172.394C94.6487 175.2 105.827 171.974 105.827 171.974L109.159 151.442V171.698L113.079 169.168L113.396 135.436C113.396 135.436 116.588 117.321 116.588 112.24C116.588 107.159 107.737 91.2883 103.817 86.679C99.8978 82.0696 93.3654 78.2534 91.4482 76.8467C89.531 75.4399 86.2609 77.0038 86.2609 77.0038Z" stroke="#263238" stroke-linecap="round" stroke-linejoin="round"/>
<path d="M85.3877 77.8203L101.498 94.6789L110.93 112.099C110.93 112.099 108.897 99.176 107.157 95.6367C105.418 92.0973 97.579 83.3276 96.6977 81.3596C95.8164 79.3917 85.3877 77.8203 85.3877 77.8203Z" fill="white" stroke="#263238" stroke-linecap="round" stroke-linejoin="round"/>
<path d="M106.468 103.882L110.929 112.113C110.929 112.113 109.545 103.306 108.076 98.2553L107.156 95.6737C105.921 93.5766 104.521 91.5753 102.966 89.6875L100.438 89.2012L101.498 94.7085L104.76 97.29L106.468 103.882Z" fill="#263238" stroke="#263238" stroke-linecap="round" stroke-linejoin="round"/>
<path d="M102.171 84.1738L103.006 85.1092L105.627 88.1023L107.173 95.7047L100.455 89.2172C100.455 89.2172 101.336 85.3037 102.171 84.1738Z" fill="white" stroke="#263238" stroke-linecap="round" stroke-linejoin="round"/>
<path d="M109.77 52.8433C109.77 52.8433 113.295 55.4623 113.736 57.9914C114.177 60.5206 112.862 63.3341 113.009 64.3143C113.156 65.2946 115.761 67.5469 115.622 68.6693C115.483 69.7917 113.303 70.2107 113.303 70.2107C113.303 70.2107 110.937 78.5465 110.358 79.9383C109.778 81.33 106.871 80.9185 104.699 80.6416L100.779 91.8657L87.8536 77.1472L89.8868 71.2433C89.8868 71.2433 84.3748 64.7858 83.9342 57.9017C83.4935 51.0176 89.1601 46.2436 97.2851 45.2633C105.41 44.2831 112.236 48.0694 113.102 49.6183C113.968 51.1672 109.77 52.8433 109.77 52.8433Z" fill="white"/>
<path d="M109.77 52.8433C109.77 52.8433 113.295 55.4623 113.736 57.9914C114.177 60.5206 112.862 63.3341 113.009 64.3143C113.156 65.2946 115.761 67.5469 115.622 68.6693C115.483 69.7917 113.303 70.2107 113.303 70.2107C113.303 70.2107 110.937 78.5465 110.358 79.9383C109.778 81.33 106.871 80.9185 104.699 80.6416L100.779 91.8657L87.8536 77.1472L89.8868 71.2433C89.8868 71.2433 84.3748 64.7858 83.9342 57.9017C83.4935 51.0176 89.1601 46.2436 97.2851 45.2633C105.41 44.2831 112.236 48.0694 113.102 49.6183C113.968 51.1672 109.77 52.8433 109.77 52.8433Z" fill="#D9D9D9"/>
<path d="M94.7106 84.9731C96.8907 84.5466 100.547 83.8133 103.841 83.095L104.691 80.6556C106.5 80.8876 108.819 81.2168 109.87 80.5059C107.397 79.5182 101.274 77.7897 100.022 75.5674C98.4755 72.8062 103.887 64.7698 103.887 60.7516C103.887 56.7334 98.6997 52.2138 98.6997 52.2138C96.2026 49.9166 91.6493 49.2207 87.6061 49.2207C86.3334 50.2964 85.3369 51.6442 84.6955 53.1572C84.0542 54.6703 83.7855 56.3071 83.9109 57.9381C84.3515 64.8222 89.8635 71.2797 89.8635 71.2797L87.8303 77.1836L94.7106 84.9731Z" fill="#B8B8B8"/>
<path d="M109.77 52.8433C109.77 52.8433 113.295 55.4623 113.736 57.9914C114.177 60.5206 112.862 63.3341 113.009 64.3143C113.156 65.2946 115.761 67.5469 115.622 68.6693C115.483 69.7917 113.303 70.2107 113.303 70.2107C113.303 70.2107 110.937 78.5465 110.358 79.9383C109.778 81.33 106.871 80.9185 104.699 80.6416L100.779 91.8657L87.8536 77.1472L89.8868 71.2433C89.8868 71.2433 84.3748 64.7858 83.9342 57.9017C83.4935 51.0176 89.1601 46.2436 97.2851 45.2633C105.41 44.2831 112.236 48.0694 113.102 49.6183C113.968 51.1672 109.77 52.8433 109.77 52.8433Z" stroke="#263238" stroke-linecap="round" stroke-linejoin="round"/>
<path d="M109.77 52.8431C109.77 52.8431 113.976 51.1595 113.102 49.6181C112.229 48.0766 105.41 44.2754 97.2853 45.2631C89.1603 46.2508 83.5015 51.0173 83.9344 57.9014C84.3673 64.7855 89.887 71.2431 89.887 71.2431L89.5778 72.141C92.585 73.5628 95.6927 71.2431 95.6927 71.2431C95.1253 71.5201 94.4816 71.615 93.8547 71.5141C93.2278 71.4132 92.6504 71.1217 92.2062 70.6819C90.4668 69.1405 90.3199 64.2243 92.5 63.7978C94.68 63.3713 96.1257 64.2243 96.1257 65.7658C96.1257 67.3072 96.5586 66.327 97.7259 66.1848C98.8933 66.0426 97.8651 62.6754 98.5918 62.1142C99.7665 61.4105 100.799 60.5052 101.638 59.4429C102.944 57.7593 99.1716 56.36 98.7386 54.8111C98.3057 53.2621 109.77 52.8431 109.77 52.8431Z" fill="#263238" stroke="#263238" stroke-linecap="round" stroke-linejoin="round"/>
<path d="M110.806 63.8125L108.115 64.6805H110.55" stroke="#263238" stroke-linecap="round" stroke-linejoin="round"/>
<path d="M111.834 61.2095C111.834 61.2095 110.682 59.6007 109.399 60.3415C108.116 61.0823 107.992 61.5836 107.992 61.5836" stroke="#263238" stroke-linecap="round" stroke-linejoin="round"/>
<path d="M109.066 72.4922C109.853 73.0128 110.814 73.2266 111.757 73.0908" stroke="#263238" stroke-linecap="round" stroke-linejoin="round"/>
<path d="M87.2737 74.4746L103.524 89.9264L102.078 96.5262L84.8076 78.5452L87.2737 74.4746Z" fill="white" stroke="#263238" stroke-linecap="round" stroke-linejoin="round"/>
<path d="M149.699 133.551C149.699 133.551 143.978 130.259 143.051 130.558C142.123 130.858 133.155 137.143 133.774 138.64C134.392 140.136 139.185 142.082 141.968 143.129C144.751 144.177 150.472 141.932 150.472 141.932L149.699 133.551Z" fill="white" stroke="#263238" stroke-linecap="round" stroke-linejoin="round"/>
<path d="M133.031 132.354C133.031 132.354 137.979 129.66 138.752 129.66C139.525 129.66 144.009 133.551 144.009 133.551L142.153 136.245C142.153 136.245 148.029 139.088 147.41 140.136C146.792 141.184 144.473 142.83 141.999 143.129C139.525 143.428 132.567 139.088 132.567 139.088L133.031 132.354Z" fill="white"/>
<path d="M133.031 132.356C133.031 132.356 137.979 129.662 138.752 129.662C139.525 129.662 144.009 133.553 144.009 133.553L142.153 136.247C142.153 136.247 148.029 139.09 147.41 140.138C146.792 141.185 144.473 142.832 141.999 143.131C139.525 143.43 132.567 139.09 132.567 139.09L133.031 132.356Z" fill="#D9D9D9"/>
<path d="M133.031 132.354C133.031 132.354 137.979 129.66 138.752 129.66C139.525 129.66 144.009 133.551 144.009 133.551L142.153 136.245C142.153 136.245 148.029 139.088 147.41 140.136C146.792 141.184 144.473 142.83 141.999 143.129C139.525 143.428 132.567 139.088 132.567 139.088L133.031 132.354Z" stroke="#263238" stroke-linecap="round" stroke-linejoin="round"/>
<path d="M129.599 131.156L133.928 131.905L132.537 139.088L128.826 137.891L129.599 131.156Z" fill="white" stroke="#263238" stroke-linecap="round" stroke-linejoin="round"/>
<path d="M79.3567 89.4023C79.3567 89.4023 75.1821 97.1844 74.7183 101.075C74.2545 104.966 91.262 135.945 92.4989 136.992C93.7358 138.04 129.908 139.088 129.908 139.088L131.454 131.455L100.531 122.925L90.0173 91.6472" fill="#263238"/>
<path opacity="0.17" d="M79.3567 89.4023C79.3567 89.4023 75.1821 97.1844 74.7183 101.075C74.2545 104.966 91.262 135.945 92.4989 136.992C93.7358 138.04 129.908 139.088 129.908 139.088L131.454 131.455L100.531 122.925L90.0173 91.6472" fill="white"/>
<path d="M79.3567 89.4023C79.3567 89.4023 75.1821 97.1844 74.7183 101.075C74.2545 104.966 91.262 135.945 92.4989 136.992C93.7358 138.04 129.908 139.088 129.908 139.088L131.454 131.455L100.531 122.925L90.0173 91.6472" stroke="#263238" stroke-linecap="round" stroke-linejoin="round"/>
<path d="M144.287 131.306C144.287 131.306 142.123 129.51 141.35 131.606C140.577 133.701 135.784 138.789 137.948 138.939C140.113 139.088 144.133 134.748 144.133 134.748" fill="white"/>
<path d="M144.287 131.306C144.287 131.306 142.123 129.51 141.35 131.606C140.577 133.701 135.784 138.789 137.948 138.939C140.113 139.088 144.133 134.748 144.133 134.748" stroke="#263238" stroke-linecap="round" stroke-linejoin="round"/>
<path d="M134.702 139.687C134.702 139.687 134.145 142.209 135.475 143.279C136.41 144.027 136.936 141.932 136.711 140.435C136.487 138.939 135.165 138.49 134.702 139.687Z" fill="white" stroke="#263238" stroke-linecap="round" stroke-linejoin="round"/>
<path d="M136.897 140.287C136.897 140.287 136.34 142.808 137.67 143.878C138.605 144.627 139.131 142.532 138.907 141.035C138.683 139.538 137.33 139.089 136.897 140.287Z" fill="white" stroke="#263238" stroke-linecap="round" stroke-linejoin="round"/>
<path d="M139.031 141.185C139.031 141.185 138.474 143.707 139.804 144.777C140.739 145.525 141.265 143.43 141.041 141.933C140.816 140.437 139.494 139.988 139.031 141.185Z" fill="white" stroke="#263238" stroke-linecap="round" stroke-linejoin="round"/>
<path d="M141.172 142.403C141.172 142.403 140.662 144.102 141.883 144.82C142.741 145.329 143.228 143.915 143.02 142.905C142.811 141.894 141.597 141.595 141.172 142.403Z" fill="white" stroke="#263238" stroke-linecap="round" stroke-linejoin="round"/>
<path d="M149.699 133.552L150.163 143.13L153.565 142.232L152.791 133.402L149.699 133.552Z" stroke="#263238" stroke-linecap="round" stroke-linejoin="round"/>
<path d="M152.018 132.653L153.564 144.027L179.384 141.333L180.003 126.518L152.018 132.653Z" fill="#263238" stroke="#263238" stroke-linecap="round" stroke-linejoin="round"/>
<path d="M106.747 177.992C106.747 177.992 102.062 208.282 102.062 218.541C102.062 228.8 94.9193 245.973 94.6719 255.513" stroke="white" stroke-linecap="round" stroke-linejoin="round"/>
<path d="M79.1487 279.106C80.3779 280.064 107.976 280.064 110.443 278.635C112.909 277.205 111.672 275.29 110.69 275.29C109.708 275.29 97.3854 267.418 97.3854 267.418C97.3854 267.418 90.7293 272.431 87.034 273.621C83.3388 274.811 77.4248 275.05 77.4248 275.05V276.487C77.7417 277.496 78.3379 278.402 79.1487 279.106Z" fill="white" stroke="#263238" stroke-linecap="round" stroke-linejoin="round"/>
<path d="M110.442 278.65C111.741 277.902 111.988 277.004 111.833 276.338C108.209 277.031 104.527 277.405 100.833 277.453C93.388 277.647 81.676 277.206 77.6406 277.041C77.9748 277.845 78.5054 278.559 79.1868 279.121C80.3773 280.079 107.976 280.079 110.442 278.65Z" fill="white" stroke="#263238" stroke-linecap="round" stroke-linejoin="round"/>
<path d="M76.7059 276.688L77.4249 275.064L78.4067 255.512C78.4067 255.512 73.9693 270.776 73.7296 274.353C73.5441 276.957 75.585 276.905 76.7059 276.688Z" fill="#263238" stroke="#263238" stroke-linecap="round" stroke-linejoin="round"/>
<path d="M183.134 172.027C183.134 172.027 180.675 207.57 183.134 221.877C185.592 236.184 191.784 260.997 192.743 264.095C193.347 265.944 193.609 267.882 193.516 269.819L207.315 271.727C207.315 271.727 203.125 224.743 203.125 219.258C203.125 213.773 207.81 172.746 207.81 172.746L183.134 172.027Z" fill="#263238" stroke="#263238" stroke-linecap="round" stroke-linejoin="round"/>
<path d="M193.486 269.818C193.486 269.818 178.457 276.021 176.726 277.211C174.994 278.401 180.429 280.077 187.077 280.077C193.725 280.077 200.389 279.329 200.389 279.329L203.095 277.9L203.342 279.568H210.486C210.486 279.568 211.722 273.844 211.259 272.415C210.907 271.437 210.497 270.48 210.029 269.549L193.486 269.818Z" fill="#263238" stroke="#263238" stroke-linecap="round" stroke-linejoin="round"/>
<path d="M180.916 169.17C180.916 169.17 182.153 203.276 185.106 215.443C188.059 227.61 193.239 257.181 193.239 260.279C193.258 262.05 193.01 263.815 192.504 265.517L191.515 268.63C191.684 269.373 191.943 270.094 192.288 270.777C192.288 270.777 198.689 272.207 202.879 272.207C205.498 272.184 208.1 271.803 210.61 271.077C210.61 271.077 210.741 263.594 210.988 260.04C211.236 256.485 210.007 233.566 210.007 228.081C210.007 222.596 208.522 219.491 208.522 212.816C208.522 206.142 207.293 188.25 207.541 185.385C207.788 182.519 211.236 179.398 211.978 175.844C212.72 172.29 213.454 168.451 213.454 168.451L180.916 169.17Z" fill="#263238" stroke="#263238" stroke-linecap="round" stroke-linejoin="round"/>
<path d="M183.869 205.025C183.869 205.025 190.757 251.276 192.481 254.194C193.509 256.056 193.785 258.222 193.254 260.27" stroke="white" stroke-linecap="round" stroke-linejoin="round"/>
<path d="M175.001 142.217C175.001 142.217 174.081 151.338 174.081 158.312C174.081 162.203 174.043 167.291 174.004 170.973C173.993 172.488 174.527 173.959 175.514 175.135C176.502 176.31 177.881 177.117 179.416 177.415C181.034 177.76 182.683 177.953 184.34 177.991L178.55 143.287C178.55 143.287 175.929 138.999 175.001 142.217Z" fill="#263238" stroke="#263238" stroke-linecap="round" stroke-linejoin="round"/>
<path d="M202.361 80.0652C203.772 80.7844 205.061 81.7108 206.179 82.8114C207.166 84.0666 208.04 85.4009 208.792 86.7997C208.792 86.7997 219.268 98.4877 219.515 99.6774C219.762 100.867 213.601 138.438 213.601 138.438L220.62 173.973C220.62 173.973 209.287 180.057 200.66 180.416C194.591 180.67 185.461 178.792 180.56 177.655C179.585 177.431 178.707 176.916 178.051 176.183C177.395 175.45 176.993 174.535 176.903 173.569C176.424 168.571 175.527 158.604 175.002 149.168C174.399 138.206 176.115 116.491 177.321 108.859C178.527 101.226 182.377 90.8553 185.33 86.5602C188.283 82.2651 196.423 77.8204 202.361 80.0652Z" fill="#263238" stroke="#263238" stroke-linecap="round" stroke-linejoin="round"/>
<path d="M208.792 86.7991C208.047 85.4194 207.183 84.1028 206.21 82.8632C205.091 81.7625 203.803 80.8362 202.391 80.117C197.474 78.2388 191.042 80.9625 187.308 84.4046C186.814 85.4671 182.917 94.0723 181.07 101.106C179.099 108.589 179.346 118.047 179.346 118.047C179.346 118.047 185.878 109.936 194.745 100.395C199.173 95.6264 204.009 91.2284 209.202 87.248L208.792 86.7991Z" fill="#263238"/>
<path opacity="0.17" d="M208.792 86.7991C208.047 85.4194 207.183 84.1028 206.21 82.8632C205.091 81.7625 203.803 80.8362 202.391 80.117C197.474 78.2388 191.042 80.9625 187.308 84.4046C186.814 85.4671 182.917 94.0723 181.07 101.106C179.099 108.589 179.346 118.047 179.346 118.047C179.346 118.047 185.878 109.936 194.745 100.395C199.173 95.6264 204.009 91.2284 209.202 87.248L208.792 86.7991Z" fill="white"/>
<path d="M208.792 86.7991C208.047 85.4194 207.183 84.1028 206.21 82.8632C205.091 81.7625 203.803 80.8362 202.391 80.117C197.474 78.2388 191.042 80.9625 187.308 84.4046C186.814 85.4671 182.917 94.0723 181.07 101.106C179.099 108.589 179.346 118.047 179.346 118.047C179.346 118.047 185.878 109.936 194.745 100.395C199.173 95.6264 204.009 91.2284 209.202 87.248L208.792 86.7991Z" stroke="#263238" stroke-linecap="round" stroke-linejoin="round"/>
<path d="M186.466 89.8895C186.466 89.8895 183.134 99.9987 182.121 102.857C181.108 105.715 181.008 110.198 181.008 110.198C181.008 110.198 193.485 92.1269 196.531 89.0889C199.577 86.0509 203.558 81.3069 203.558 81.3069L200.876 80.5586L186.466 89.8895Z" fill="white" stroke="#263238" stroke-linecap="round" stroke-linejoin="round"/>
<path d="M187.387 86.2227C187.387 86.2227 185.91 90.4279 185.91 90.7123C185.91 90.9966 185.539 95.0074 185.539 95.0074L190.804 88.1158L187.387 86.2227Z" fill="white" stroke="#263238" stroke-linecap="round" stroke-linejoin="round"/>
<path d="M200.783 77.8203L186.373 89.1791L188.592 95.4346L203.373 80.8583L200.783 77.8203Z" fill="white" stroke="#263238" stroke-linecap="round" stroke-linejoin="round"/>
<path d="M198.92 167.912C198.92 167.912 196.871 172.843 196.261 174.459C195.65 176.076 195.959 182.406 196.037 183.072C196.114 183.738 197.328 183.88 197.328 183.88C197.328 183.88 197.706 188.954 198.162 189.118C198.637 189.232 199.12 189.305 199.608 189.335C199.608 189.335 200.443 191.917 201.51 191.692C201.83 191.598 202.116 191.415 202.331 191.167C202.546 190.918 202.683 190.615 202.724 190.293C203.074 190.325 203.427 190.267 203.747 190.125C204.068 189.983 204.344 189.762 204.548 189.485C204.982 188.866 205.34 188.201 205.615 187.502C205.615 187.502 207.439 186.619 207.586 185.953C207.733 185.287 208.197 182.96 208.197 182.96C208.197 182.96 208.73 182.81 208.73 181.269C208.73 179.727 207.517 170.232 207.517 170.232L198.92 167.912Z" fill="white" stroke="#263238" stroke-linecap="round" stroke-linejoin="round"/>
<path d="M197.328 183.881L197.552 179.406" stroke="#263238" stroke-linecap="round" stroke-linejoin="round"/>
<path d="M199.608 189.319L200.103 182.697" stroke="#263238" stroke-linecap="round" stroke-linejoin="round"/>
<path d="M202.724 190.278L203.079 183.109" stroke="#263238" stroke-linecap="round" stroke-linejoin="round"/>
<path d="M205.615 187.487L206.056 182.496" stroke="#263238" stroke-linecap="round" stroke-linejoin="round"/>
<path d="M213.941 96.4219L219.484 99.6394L217.636 136.731L207.78 171.788L198.418 169.408L201.371 141.722L199.895 113.819C199.895 113.819 201.99 107.317 206.79 103.74" fill="#263238"/>
<path d="M213.941 96.4219L219.484 99.6394L217.636 136.731L207.78 171.788L198.418 169.408L201.371 141.722L199.895 113.819C199.895 113.819 201.99 107.317 206.79 103.74" stroke="#263238" stroke-linecap="round" stroke-linejoin="round"/>
<path d="M202.538 102.686C202.538 102.686 200.018 108.881 199.895 113.835" stroke="white" stroke-linecap="round" stroke-linejoin="round"/>
<path d="M204.64 105.633C204.64 105.633 200.326 112.45 200.326 115.532C200.326 118.615 201.463 144.341 201.463 144.341L198.51 166.55" stroke="white" stroke-linecap="round" stroke-linejoin="round"/>
<path d="M177.87 55.0957C177.87 55.0957 174.909 63.2369 175.188 64.4042C175.466 65.5715 175.744 67.3524 175.744 67.3524C175.744 67.3524 171.106 72.8971 171.678 73.5256C172.25 74.1542 174.816 74.865 174.816 74.865C174.816 74.865 176.942 83.4552 177.777 84.2559C178.612 85.0565 183.784 83.2756 183.784 83.2756L189.327 90.0699L200.691 79.5193L199.307 73.9746C199.307 73.9746 205.314 63.7757 205.221 58.9418C205.128 54.108 194.878 47.6729 187.572 47.7626C180.267 47.8524 173.433 50.4489 174.816 52.3271C175.631 53.4395 176.67 54.3812 177.87 55.0957Z" fill="white"/>
<path d="M201.634 53.3516C200.226 53.5506 198.851 53.928 197.544 54.474L186.652 58.7466C186.652 58.7466 181.464 63.0118 182.013 66.2742C182.562 69.5367 187.2 74.0562 186.165 77.3187C185.129 80.5812 178.643 84.098 178.643 84.098L180.676 84.1729C182.222 83.8212 183.814 83.2749 183.814 83.2749L184.665 84.315L195.163 84.6817L200.721 79.5186L199.338 73.9739C199.338 73.9739 205.344 63.775 205.252 58.9412C205.19 57.1603 203.767 55.1624 201.634 53.3516Z" fill="#B8B8B8"/>
<path d="M177.87 55.0957C177.87 55.0957 174.909 63.2369 175.188 64.4042C175.466 65.5715 175.744 67.3524 175.744 67.3524C175.744 67.3524 171.106 72.8971 171.678 73.5256C172.25 74.1542 174.816 74.865 174.816 74.865C174.816 74.865 176.942 83.4552 177.777 84.2559C178.612 85.0565 183.784 83.2756 183.784 83.2756L189.327 90.0699L200.691 79.5193L199.307 73.9746C199.307 73.9746 205.314 63.7757 205.221 58.9418C205.128 54.108 194.878 47.6729 187.572 47.7626C180.267 47.8524 173.433 50.4489 174.816 52.3271C175.631 53.4395 176.67 54.3812 177.87 55.0957Z" stroke="#263238" stroke-linecap="round" stroke-linejoin="round"/>
<path d="M199.307 73.9746C199.307 73.9746 205.314 63.7757 205.221 58.9418C205.128 54.108 194.878 47.6729 187.572 47.7626C180.267 47.8524 173.433 50.4489 174.816 52.3271C175.631 53.4395 176.67 54.3812 177.87 55.0957C177.87 55.0957 182.4 57.1535 182.4 57.6922C182.4 58.231 179.718 61.0894 180.645 62.3465C181.573 63.6036 186.003 65.1151 186.003 65.1151C186.003 65.1151 185.23 67.532 186.374 67.8014C187.518 68.0707 188.036 66.9932 188.77 66.3048C189.505 65.6164 192.102 64.5988 192.473 67.6442C192.692 69.8286 192.1 72.0169 190.803 73.8175C190.44 74.0794 195.519 77.3942 197.761 76.4065C198.341 76.1521 199.021 75.8154 199.701 75.4637L199.307 73.9746Z" fill="#263238" stroke="#263238" stroke-linecap="round" stroke-linejoin="round"/>
<path d="M177.127 69.5897C177.486 69.5897 177.776 68.5076 177.776 67.1728C177.776 65.838 177.486 64.7559 177.127 64.7559C176.768 64.7559 176.478 65.838 176.478 67.1728C176.478 68.5076 176.768 69.5897 177.127 69.5897Z" stroke="#263238" stroke-linecap="round" stroke-linejoin="round"/>
<path d="M177.869 66.1934L188.769 66.2826" stroke="#263238" stroke-linecap="round" stroke-linejoin="round"/>
<path d="M176.076 63.2811C176.076 63.2811 177.112 61.6798 178.148 63.6777" stroke="#263238" stroke-linecap="round" stroke-linejoin="round"/>
<path d="M175.867 76.3248C176.988 75.8827 178.032 75.2743 178.959 74.5215" stroke="#263238" stroke-linecap="round" stroke-linejoin="round"/>
<path d="M6.45703 280.078H310.714" stroke="#263238" stroke-width="2" stroke-miterlimit="10"/>
</g>
<defs>
<clipPath id="clip0_1060_839">
<rect width="322" height="280.078" fill="white"/>
</clipPath>
</defs>
</svg>
