<svg width="41" height="42" viewBox="0 0 41 42" fill="none" xmlns="http://www.w3.org/2000/svg">
<path d="M15.375 38.5H25.625C34.1666 38.5 37.5833 35 37.5833 26.25V15.75C37.5833 7 34.1666 3.5 25.625 3.5H15.375C6.83329 3.5 3.41663 7 3.41663 15.75V26.25C3.41663 35 6.83329 38.5 15.375 38.5Z" stroke="#5F5E73" stroke-width="1.5" stroke-linecap="round" stroke-linejoin="round"/>
<path d="M29.8958 21C29.8958 26.32 25.6933 30.625 20.5 30.625C15.3066 30.625 12.1462 25.27 12.1462 25.27M12.1462 25.27H16.3829M12.1462 25.27V30.0825M11.1041 21C11.1041 15.68 15.2725 11.375 20.5 11.375C26.7695 11.375 29.8958 16.73 29.8958 16.73M29.8958 16.73V11.9175M29.8958 16.73H25.7275" stroke="#5F5E73" stroke-width="1.5" stroke-linecap="round" stroke-linejoin="round"/>
</svg>
