<svg width="43" height="41" viewBox="0 0 43 41" fill="none" xmlns="http://www.w3.org/2000/svg">
<path d="M27.9321 20.9442C33.0083 20.9442 37.1234 17.0206 37.1234 12.1805C37.1234 7.34042 33.0083 3.41675 27.9321 3.41675C22.8559 3.41675 18.7408 7.34042 18.7408 12.1805C18.7408 17.0206 22.8559 20.9442 27.9321 20.9442Z" stroke="#5F5E73" stroke-width="1.5" stroke-miterlimit="10"/>
<path d="M11.395 33.2101C14.4427 33.2101 16.9134 30.8544 16.9134 27.9484C16.9134 25.0425 14.4427 22.6868 11.395 22.6868C8.34733 22.6868 5.87671 25.0425 5.87671 27.9484C5.87671 30.8544 8.34733 33.2101 11.395 33.2101Z" stroke="#5F5E73" stroke-width="1.5" stroke-miterlimit="10"/>
<path d="M29.7775 37.5833C32.3106 37.5833 34.3641 35.6253 34.3641 33.21C34.3641 30.7947 32.3106 28.8367 29.7775 28.8367C27.2443 28.8367 25.1908 30.7947 25.1908 33.21C25.1908 35.6253 27.2443 37.5833 29.7775 37.5833Z" stroke="#5F5E73" stroke-width="1.5" stroke-miterlimit="10"/>
</svg>
