<svg width="16" height="13" viewBox="0 0 16 13" fill="none" xmlns="http://www.w3.org/2000/svg">
<path d="M1.59375 7.09375H14.7188C14.8928 7.09375 15.0597 7.03119 15.1828 6.91984C15.3059 6.80849 15.375 6.65747 15.375 6.5C15.375 6.34253 15.3059 6.1915 15.1828 6.08015C15.0597 5.96881 14.8928 5.90625 14.7188 5.90625H1.59375C1.4197 5.90625 1.25278 5.96881 1.12971 6.08015C1.00664 6.1915 0.9375 6.34253 0.9375 6.5C0.9375 6.65747 1.00664 6.80849 1.12971 6.91984C1.25278 7.03119 1.4197 7.09375 1.59375 7.09375Z" fill="#BC37C8"/>
<path d="M1.86563 6.49925L7.30857 1.57588C7.4318 1.46439 7.50102 1.31317 7.50102 1.1555C7.50102 0.997829 7.4318 0.846616 7.30857 0.735126C7.18535 0.623634 7.01821 0.561001 6.84395 0.561001C6.66968 0.561001 6.50255 0.623634 6.37932 0.735126L0.473071 6.07888C0.411957 6.13403 0.36347 6.19955 0.330386 6.27169C0.297303 6.34382 0.280273 6.42115 0.280273 6.49925C0.280273 6.57735 0.297303 6.65468 0.330386 6.72681C0.36347 6.79895 0.411957 6.86447 0.473071 6.91963L6.37932 12.2634C6.50255 12.3749 6.66968 12.4375 6.84395 12.4375C7.01821 12.4375 7.18535 12.3749 7.30857 12.2634C7.4318 12.1519 7.50102 12.0007 7.50102 11.843C7.50102 11.6853 7.4318 11.5341 7.30857 11.4226L1.86563 6.49925Z" fill="#BC37C8"/>
</svg>
