<svg width="658" height="752" viewBox="0 0 658 752" fill="none" xmlns="http://www.w3.org/2000/svg">
<path fill-rule="evenodd" clip-rule="evenodd" d="M161.843 -555.904C231.004 -465.874 374.97 -444.936 420.464 -340.923C465.505 -237.944 458.628 -105.16 401.243 -8.55324C343.134 89.2726 202.13 96.7381 116.198 171.307C41.3653 236.245 1.3654 329.216 -68.7125 399.259C-167.552 498.049 -243.123 682.527 -382.283 669.537C-522.884 656.412 -566.356 461.43 -646.752 345.299C-702.332 265.016 -728.415 171.056 -783.291 90.2902C-837.982 9.79665 -947.3 -35.0253 -969.532 -129.763C-991.68 -224.14 -945.429 -322.646 -900.328 -408.43C-858.691 -487.624 -751.7 -519.324 -720.607 -603.225C-664.131 -755.615 -776.291 -975.592 -651.545 -1079.73C-547.461 -1166.62 -388.741 -1031.65 -260.608 -987.226C-155.174 -950.67 -42.0445 -921.06 36.0482 -841.328C109.723 -766.106 97.698 -639.403 161.843 -555.904Z" fill="#DE9BE3"/>
<path fill-rule="evenodd" clip-rule="evenodd" d="M141.558 -558.994C210.72 -468.964 354.686 -448.026 400.179 -344.013C445.22 -241.034 438.344 -108.25 380.959 -11.6431C322.85 86.1828 181.846 93.6483 95.9136 168.218C21.0811 233.155 -18.9188 326.126 -88.9967 396.169C-187.836 494.959 -263.407 679.437 -402.567 666.447C-543.168 653.322 -586.64 458.34 -667.036 342.209C-722.616 261.926 -748.699 167.966 -803.575 87.2004C-858.267 6.7068 -967.584 -38.1152 -989.816 -132.852C-1011.96 -227.23 -965.713 -325.736 -920.612 -411.52C-878.975 -490.714 -771.985 -522.414 -740.891 -606.315C-684.415 -758.705 -796.575 -978.681 -671.829 -1082.82C-567.746 -1169.71 -409.025 -1034.74 -280.893 -990.316C-175.458 -953.76 -62.3287 -924.15 15.764 -844.418C89.4389 -769.195 77.4139 -642.493 141.558 -558.994Z" fill="#D582DD"/>
<path fill-rule="evenodd" clip-rule="evenodd" d="M125.317 -572.117C194.479 -482.087 338.445 -461.149 383.938 -357.136C428.979 -254.157 422.103 -121.373 364.718 -24.7661C306.609 73.0597 165.605 80.5252 79.6726 155.094C4.84014 220.032 -35.1597 313.003 -105.238 383.046C-204.077 481.836 -279.648 666.314 -418.808 653.324C-559.409 640.199 -602.881 445.217 -683.277 329.086C-738.857 248.803 -764.94 154.843 -819.816 74.0774C-874.508 -6.41624 -983.825 -51.2382 -1006.06 -145.975C-1028.21 -240.353 -981.954 -338.859 -936.853 -424.643C-895.216 -503.837 -788.226 -535.537 -757.132 -619.438C-700.656 -771.828 -812.816 -991.804 -688.07 -1095.94C-583.987 -1182.83 -425.266 -1047.86 -297.134 -1003.44C-191.699 -966.883 -78.5696 -937.273 -0.476919 -857.541C73.198 -782.319 61.1729 -655.616 125.317 -572.117Z" fill="#CD69D6"/>
<path fill-rule="evenodd" clip-rule="evenodd" d="M104.166 -578.25C173.327 -488.22 317.293 -467.282 362.787 -363.269C407.828 -260.29 400.951 -127.506 343.566 -30.8989C285.457 66.9269 144.453 74.3924 58.5207 148.962C-16.3117 213.899 -56.3116 306.871 -126.39 376.913C-225.229 475.703 -300.8 660.182 -439.96 647.191C-580.561 634.066 -624.033 439.084 -704.429 322.953C-760.009 242.67 -786.092 148.711 -840.968 67.9445C-895.659 -12.5491 -1004.98 -57.371 -1027.21 -152.108C-1049.36 -246.485 -1003.11 -344.992 -958.005 -430.775C-916.368 -509.97 -809.377 -541.67 -778.284 -625.57C-721.808 -777.961 -833.968 -997.937 -709.222 -1102.07C-605.138 -1188.96 -446.418 -1054 -318.285 -1009.57C-212.851 -973.016 -99.7215 -943.406 -21.6288 -863.673C52.0461 -788.451 40.021 -661.748 104.166 -578.25Z" fill="#BC37C8"/>
</svg>
