<svg width="39" height="38" viewBox="0 0 39 38" fill="none" xmlns="http://www.w3.org/2000/svg">
<path d="M29.315 21.4541C28.6325 22.1032 28.2425 23.0374 28.34 24.0349C28.4863 25.7449 30.095 26.9957 31.85 26.9957H34.9375V28.8799C34.9375 32.1574 32.1912 34.8333 28.8275 34.8333H10.1725C6.80875 34.8333 4.0625 32.1574 4.0625 28.8799V18.2241C4.0625 14.9466 6.80875 12.2708 10.1725 12.2708H28.8275C32.1912 12.2708 34.9375 14.9466 34.9375 18.2241V20.5041H31.655C30.745 20.5041 29.9163 20.8524 29.315 21.4541Z" stroke="#5F5E73" stroke-width="1.5" stroke-linecap="round" stroke-linejoin="round"/>
<path d="M4.0625 19.6491V12.4133C4.0625 10.5291 5.24875 8.85075 7.0525 8.18575L19.955 3.43575C21.97 2.69158 24.1313 4.14829 24.1313 6.25413V12.2708" stroke="#5F5E73" stroke-width="1.5" stroke-linecap="round" stroke-linejoin="round"/>
<path d="M36.6581 22.1193V25.3811C36.6581 26.2519 35.9431 26.9644 35.0331 26.996H31.8481C30.0931 26.996 28.4843 25.7452 28.3381 24.0352C28.2406 23.0377 28.6306 22.1035 29.3131 21.4544C29.9143 20.8527 30.7431 20.5044 31.6531 20.5044H35.0331C35.9431 20.5361 36.6581 21.2485 36.6581 22.1193Z" stroke="#5F5E73" stroke-width="1.5" stroke-linecap="round" stroke-linejoin="round"/>
<path d="M11.375 19H22.75" stroke="#5F5E73" stroke-width="1.5" stroke-linecap="round" stroke-linejoin="round"/>
</svg>
