<svg width="40" height="43" viewBox="0 0 40 43" fill="none" xmlns="http://www.w3.org/2000/svg">
<path d="M34.85 19.9232C34.85 28.6845 28.9334 36.8903 20.85 39.2911C20.3 39.4524 19.7 39.4524 19.15 39.2911C11.0667 36.8903 5.15002 28.6845 5.15002 19.9232V12.0578C5.15002 10.5886 6.18338 8.92235 7.46672 8.36694L16.75 4.28199C18.8333 3.36824 21.1833 3.36824 23.2667 4.28199L32.55 8.36694C33.8167 8.92235 34.8667 10.5886 34.8667 12.0578L34.85 19.9232Z" stroke="#5F5E73" stroke-width="1.5" stroke-linecap="round" stroke-linejoin="round"/>
<path d="M20 22.3959C21.8409 22.3959 23.3333 20.7916 23.3333 18.8126C23.3333 16.8336 21.8409 15.2292 20 15.2292C18.159 15.2292 16.6666 16.8336 16.6666 18.8126C16.6666 20.7916 18.159 22.3959 20 22.3959Z" stroke="#5F5E73" stroke-width="1.5" stroke-miterlimit="10" stroke-linecap="round" stroke-linejoin="round"/>
<path d="M20 22.396V27.771" stroke="#5F5E73" stroke-width="1.5" stroke-miterlimit="10" stroke-linecap="round" stroke-linejoin="round"/>
</svg>
